<?xml version="1.0" encoding="UTF-8" standalone="no"?>
<!-- Created with Inkscape (http://www.inkscape.org/) -->

<svg
   xmlns:dc="http://purl.org/dc/elements/1.1/"
   xmlns:cc="http://creativecommons.org/ns#"
   xmlns:rdf="http://www.w3.org/1999/02/22-rdf-syntax-ns#"
   xmlns:svg="http://www.w3.org/2000/svg"
   xmlns="http://www.w3.org/2000/svg"
   xmlns:sodipodi="http://sodipodi.sourceforge.net/DTD/sodipodi-0.dtd"
   xmlns:inkscape="http://www.inkscape.org/namespaces/inkscape"
   width="39.444435mm"
   height="39.955929mm"
   viewBox="0 0 139.76375 141.57613"
   id="svg3913"
   version="1.1"
   inkscape:version="0.91 r13725"
   sodipodi:docname="icon_consejeria.svg">
  <defs
     id="defs3915" />
  <sodipodi:namedview
     id="base"
     pagecolor="#7696c5"
     bordercolor="#666666"
     borderopacity="1.0"
     inkscape:pageopacity="0"
     inkscape:pageshadow="2"
     inkscape:zoom="1.979899"
     inkscape:cx="12.332133"
     inkscape:cy="32.431067"
     inkscape:document-units="px"
     inkscape:current-layer="layer1"
     showgrid="false"
     fit-margin-top="0"
     fit-margin-left="0"
     fit-margin-right="0"
     fit-margin-bottom="0"
     inkscape:window-width="1871"
     inkscape:window-height="1056"
     inkscape:window-x="49"
     inkscape:window-y="24"
     inkscape:window-maximized="1" />
  <metadata
     id="metadata3918">
    <rdf:RDF>
      <cc:Work
         rdf:about="">
        <dc:format>image/svg+xml</dc:format>
        <dc:type
           rdf:resource="http://purl.org/dc/dcmitype/StillImage" />
        <dc:title></dc:title>
      </cc:Work>
    </rdf:RDF>
  </metadata>
  <g
     inkscape:label="Layer 1"
     inkscape:groupmode="layer"
     id="layer1"
     transform="translate(-152.97526,-333.00271)">
    <g
       transform="matrix(1.25,0,0,-1.25,-574.78461,985.58446)"
       id="g3884">
      <g
         id="g456"
         transform="translate(650.165,428.7354)">
        <path
           d="M 0,0 C 1.198,0 2.399,0.054 3.592,-0.013 5.348,-0.111 6.518,0.322 6.479,2.406 6.442,4.314 5.364,4.72 3.733,4.681 1.339,4.625 -1.058,4.636 -3.452,4.677 -5.055,4.705 -6.111,4.383 -6.138,2.399 -6.167,0.25 -5.024,-0.1 -3.292,-0.01 -2.198,0.046 -1.098,0 0,0 m -21.747,-11.083 c 2.62,5.353 4.774,10.091 7.232,14.666 1.717,3.196 2.437,6.314 1.945,10.005 -1.07,8.022 -1.705,16.102 -2.459,23.568 l -13.479,0 c -0.724,-7.392 -1.523,-15.252 -2.246,-23.119 -0.19,-2.064 -0.83,-4.442 -0.09,-6.174 2.662,-6.23 5.827,-12.245 9.097,-18.946 m 17.544,73.301 c -3.235,2.013 -3.264,2.089 -2.26,5.571 0.701,2.433 -1.356,5.909 -3.426,5.401 -5.491,-1.344 -10.074,0.284 -14.267,3.671 -1.524,1.231 -2.717,0.919 -4.247,-0.265 -1.251,-0.969 -3.084,-1.879 -4.546,-1.727 -2.379,0.247 -3.565,-0.708 -3.913,-2.65 -0.299,-1.668 0.186,-3.463 0.04,-5.177 -0.113,-1.324 -0.35,-2.848 -1.105,-3.851 -0.937,-1.243 -1.551,-5.672 -0.22,-5.958 4.101,-0.879 3.745,-4.32 4.423,-7.012 1.36,-5.399 10.81,-10.61 16.778,-7.296 4.053,2.252 7.001,4.954 7.734,9.629 0.389,2.477 1.272,4.431 4.152,4.586 0.291,1.726 0.557,3.301 0.857,5.078 M -18.069,93.33 c 0.148,-0.128 0.276,-0.329 0.445,-0.375 C -5.961,89.757 0.426,80.371 -0.828,68.27 -0.877,67.793 -1.048,67.106 -0.809,66.857 2.657,63.249 0.389,59.26 -0.052,55.426 -0.146,54.61 -0.686,53.421 -1.326,53.164 -4.179,52.016 -4.51,49.38 -5.442,47.029 -5.916,45.834 -6.48,44.483 -7.418,43.703 -10.004,41.555 -9.757,38.86 -9.392,35.741 -4.308,34.276 0.853,32.763 6.03,31.305 13.263,29.268 17.14,24.353 17.312,16.898 17.345,15.495 17.25,14.085 17.333,12.685 17.603,8.074 17.594,4.088 12.558,1.15 8.203,-1.39 7.283,-6.632 7.257,-11.757 l -67.506,0 c -0.171,0.207 -0.4,0.354 -0.401,0.503 -0.045,9.929 -0.272,19.863 -0.024,29.785 0.153,6.083 4.44,10.863 10.396,12.59 4.425,1.283 8.866,2.508 13.299,3.764 3.104,0.879 4.19,4.409 2.448,7.114 -1.707,2.649 -3.081,5.511 -4.608,8.275 -0.277,0.5 -0.484,1.114 -0.904,1.446 -4.545,3.597 -5.671,9.397 -2.931,14.755 0.359,0.703 0.106,1.702 0.211,2.555 0.46,3.74 0.549,7.582 1.507,11.193 1.996,7.529 8.535,10 14.945,12.449 0.542,0.208 1.077,0.438 1.615,0.658 l 6.627,0 z"
           style="fill:#ffffff;fill-opacity:1;fill-rule:evenodd;stroke:none"
           id="path458"
           inkscape:connector-curvature="0" />
      </g>
      <g
         id="g460"
         transform="translate(682.3799,414.3325)">
        <path
           d="M 0,0 C -1.721,2.325 -17.585,2.132 -18.65,0 L 0,0 Z m -18.182,5.48 17.429,0 c -0.625,4.748 -3.881,7.744 -8.387,7.876 -4.702,0.138 -8.17,-2.828 -9.042,-7.876 M -98.48,-5.528 c -0.564,1.255 -1.128,2.51 -1.692,3.765 1.283,0.552 2.564,1.581 3.849,1.586 23.377,0.097 46.754,0.138 70.131,-0.009 3.166,-0.02 4.064,1.218 4.066,3.963 0.006,6.645 3.486,10.4 9.414,13.229 2.749,1.313 3.543,1.492 6.474,0.074 C 0.083,14.022 3.415,9.957 3.364,3.009 3.349,0.94 4.091,-0.524 6.583,-0.115 c 0.391,0.064 0.845,0.122 1.195,-0.011 1.304,-0.5 2.577,-1.081 3.861,-1.631 -0.559,-1.257 -1.118,-2.514 -1.677,-3.771 l -108.442,0 z"
           style="fill:#ffffff;fill-opacity:1;fill-rule:evenodd;stroke:none"
           id="path462"
           inkscape:connector-curvature="0" />
      </g>
    </g>
  </g>
</svg>
