<?xml version="1.0" encoding="UTF-8" standalone="no"?>
<!-- Created with Inkscape (http://www.inkscape.org/) -->

<svg
   xmlns:dc="http://purl.org/dc/elements/1.1/"
   xmlns:cc="http://creativecommons.org/ns#"
   xmlns:rdf="http://www.w3.org/1999/02/22-rdf-syntax-ns#"
   xmlns:svg="http://www.w3.org/2000/svg"
   xmlns="http://www.w3.org/2000/svg"
   xmlns:sodipodi="http://sodipodi.sourceforge.net/DTD/sodipodi-0.dtd"
   xmlns:inkscape="http://www.inkscape.org/namespaces/inkscape"
   width="24.095781mm"
   height="20.021126mm"
   viewBox="0 0 85.378753 70.940997"
   id="svg3736"
   version="1.1"
   inkscape:version="0.91 r13725"
   sodipodi:docname="icon_logo.svg">
  <defs
     id="defs3738">
    <clipPath
       clipPathUnits="userSpaceOnUse"
       id="clipPath116">
      <path
         d="m 0,701.029 1274.201,0 L 1274.201,0 0,0 0,701.029 Z"
         id="path118"
         inkscape:connector-curvature="0" />
    </clipPath>
    <clipPath
       clipPathUnits="userSpaceOnUse"
       id="clipPath174">
      <path
         d="m 0,701.029 1274.201,0 L 1274.201,0 0,0 0,701.029 Z"
         id="path176"
         inkscape:connector-curvature="0" />
    </clipPath>
    <clipPath
       clipPathUnits="userSpaceOnUse"
       id="clipPath376">
      <path
         d="m 0,701.029 1274.201,0 L 1274.201,0 0,0 0,701.029 Z"
         id="path378"
         inkscape:connector-curvature="0" />
    </clipPath>
    <clipPath
       clipPathUnits="userSpaceOnUse"
       id="clipPath376-3">
      <path
         d="m 0,701.029 1274.201,0 L 1274.201,0 0,0 0,701.029 Z"
         id="path378-6"
         inkscape:connector-curvature="0" />
    </clipPath>
    <clipPath
       clipPathUnits="userSpaceOnUse"
       id="clipPath138">
      <path
         d="m 0,701.029 1274.201,0 L 1274.201,0 0,0 0,701.029 Z"
         id="path140"
         inkscape:connector-curvature="0" />
    </clipPath>
    <clipPath
       clipPathUnits="userSpaceOnUse"
       id="clipPath154">
      <path
         d="m 0,701.029 1274.201,0 L 1274.201,0 0,0 0,701.029 Z"
         id="path156"
         inkscape:connector-curvature="0" />
    </clipPath>
    <clipPath
       clipPathUnits="userSpaceOnUse"
       id="clipPath64">
      <path
         d="m 0,701.029 1274.201,0 L 1274.201,0 0,0 0,701.029 Z"
         id="path66"
         inkscape:connector-curvature="0" />
    </clipPath>
    <clipPath
       clipPathUnits="userSpaceOnUse"
       id="clipPath84">
      <path
         d="m 0,701.029 1274.201,0 L 1274.201,0 0,0 0,701.029 Z"
         id="path86"
         inkscape:connector-curvature="0" />
    </clipPath>
  </defs>
  <sodipodi:namedview
     id="base"
     pagecolor="#ffffff"
     bordercolor="#666666"
     borderopacity="1.0"
     inkscape:pageopacity="0.0"
     inkscape:pageshadow="2"
     inkscape:zoom="1.4"
     inkscape:cx="-156.61673"
     inkscape:cy="236.8522"
     inkscape:document-units="px"
     inkscape:current-layer="layer2"
     showgrid="false"
     inkscape:window-width="1871"
     inkscape:window-height="1056"
     inkscape:window-x="49"
     inkscape:window-y="24"
     inkscape:window-maximized="1"
     fit-margin-top="0"
     fit-margin-left="0"
     fit-margin-right="0"
     fit-margin-bottom="0" />
  <metadata
     id="metadata3741">
    <rdf:RDF>
      <cc:Work
         rdf:about="">
        <dc:format>image/svg+xml</dc:format>
        <dc:type
           rdf:resource="http://purl.org/dc/dcmitype/StillImage" />
        <dc:title></dc:title>
      </cc:Work>
    </rdf:RDF>
  </metadata>
  <g
     inkscape:groupmode="layer"
     id="layer2"
     inkscape:label="back"
     transform="translate(-253.73915,-596.1775)" />
  <g
     inkscape:label="Layer 1"
     inkscape:groupmode="layer"
     id="layer1"
     transform="translate(-253.73915,-596.1775)">
    <g
       transform="matrix(1.25,0,0,-1.25,-1182.8076,1455.108)"
       id="g5151">
      <g
         id="g324"
         transform="translate(1192.9209,687.0439)">
        <path
           d="M 0,0 -9.513,-14.823 -19.062,0 -25.748,0 -9.513,-25.21 6.682,0 0,0 Z"
           style="fill:#b08439;fill-opacity:1;fill-rule:nonzero;stroke:none"
           id="path326"
           inkscape:connector-curvature="0" />
      </g>
      <g
         id="g328"
         transform="translate(1155.1914,648.1104)">
        <path
           d="M 0,0 -5.954,0 8.139,39.034 28.185,8.336 48.256,39.034 62.349,0 56.327,0 46.67,26.663 28.251,-1.918 9.725,26.663 0,0 Z"
           style="fill:#ffffff;fill-opacity:1;fill-rule:nonzero;stroke:none"
           id="path330"
           inkscape:connector-curvature="0" />
      </g>
      <g
         id="g332"
         transform="translate(1203.1006,671.3516)">
        <path
           d="M 0,0 -19.692,-30.573 -39.396,0.1 -41.832,-6.579 -19.692,-40.96 2.392,-6.604 0,0 Z"
           style="fill:#b08439;fill-opacity:1;fill-rule:nonzero;stroke:none"
           id="path334"
           inkscape:connector-curvature="0" />
      </g>
    </g>
  </g>
</svg>
