<?xml version="1.0" encoding="UTF-8" standalone="no"?>
<!-- Created with Inkscape (http://www.inkscape.org/) -->

<svg
   xmlns:dc="http://purl.org/dc/elements/1.1/"
   xmlns:cc="http://creativecommons.org/ns#"
   xmlns:rdf="http://www.w3.org/1999/02/22-rdf-syntax-ns#"
   xmlns:svg="http://www.w3.org/2000/svg"
   xmlns="http://www.w3.org/2000/svg"
   xmlns:sodipodi="http://sodipodi.sourceforge.net/DTD/sodipodi-0.dtd"
   xmlns:inkscape="http://www.inkscape.org/namespaces/inkscape"
   width="73.5457mm"
   height="16.834204mm"
   viewBox="0 0 260.595 59.648753"
   id="svg4497"
   version="1.1"
   inkscape:version="0.91 r13725"
   sodipodi:docname="icon_youtube.svg">
  <defs
     id="defs4499">
    <clipPath
       clipPathUnits="userSpaceOnUse"
       id="clipPath648">
      <path
         d="m 1082.815,473.192 c 0,-7.94 6.436,-14.377 14.377,-14.377 l 0,0 c 7.939,0 14.376,6.437 14.376,14.377 l 0,0 c 0,7.939 -6.437,14.376 -14.376,14.376 l 0,0 c -7.941,0 -14.377,-6.437 -14.377,-14.376"
         id="path650"
         inkscape:connector-curvature="0" />
    </clipPath>
    <linearGradient
       x1="0"
       y1="0"
       x2="1"
       y2="0"
       gradientUnits="userSpaceOnUse"
       gradientTransform="matrix(-1.2e-6,-27.689388,-27.689388,1.2e-6,1097.1914,487.36475)"
       spreadMethod="pad"
       id="linearGradient656">
      <stop
         style="stop-opacity:1;stop-color:#9bc3e7"
         offset="0"
         id="stop658" />
      <stop
         style="stop-opacity:1;stop-color:#1d6db1"
         offset="1"
         id="stop660" />
    </linearGradient>
  </defs>
  <sodipodi:namedview
     id="base"
     pagecolor="#ffffff"
     bordercolor="#666666"
     borderopacity="1.0"
     inkscape:pageopacity="0.0"
     inkscape:pageshadow="2"
     inkscape:zoom="0.35"
     inkscape:cx="496.53381"
     inkscape:cy="-575.89988"
     inkscape:document-units="px"
     inkscape:current-layer="layer1"
     showgrid="false"
     fit-margin-top="0"
     fit-margin-left="0"
     fit-margin-right="0"
     fit-margin-bottom="0"
     inkscape:window-width="1871"
     inkscape:window-height="1056"
     inkscape:window-x="49"
     inkscape:window-y="24"
     inkscape:window-maximized="1" />
  <metadata
     id="metadata4502">
    <rdf:RDF>
      <cc:Work
         rdf:about="">
        <dc:format>image/svg+xml</dc:format>
        <dc:type
           rdf:resource="http://purl.org/dc/dcmitype/StillImage" />
        <dc:title></dc:title>
      </cc:Work>
    </rdf:RDF>
  </metadata>
  <g
     inkscape:label="Layer 1"
     inkscape:groupmode="layer"
     id="layer1"
     transform="translate(615.81953,103.18642)">
    <g
       id="g4429"
       transform="matrix(1.25,0,0,-1.25,-1558.9814,529.5682)">
      <g
         transform="translate(854.9175,469.3979)"
         id="g544">
        <path
           inkscape:connector-curvature="0"
           id="path546"
           style="fill:#ffffff;fill-opacity:1;fill-rule:evenodd;stroke:none"
           d="m 0,0 c 0,-1.421 1.162,-2.583 2.583,-2.583 1.421,0 2.583,1.162 2.583,2.583 l 0,15.625 c 0,1.421 -1.162,2.583 -2.583,2.583 C 1.162,18.208 0,17.046 0,15.625 L 0,0 Z m 2.583,23.035 0,0 c 4.448,0 8.088,-3.639 8.088,-8.088 l 0,-14.218 c 0,-4.449 -3.64,-8.087 -8.088,-8.087 -4.448,0 -8.088,3.638 -8.088,8.087 l 0,14.218 c 0,4.449 3.64,8.088 8.088,8.088 m -21.185,-30.393 6.096,0 0,16.129 7.25,24.039 -6.096,0 -4.207,-15.106 -4.207,15.106 -6.095,0 7.259,-24.076 0,-16.092 z m 43.702,0 5.406,0 0,30.054 -5.406,0 0,-22.908 c -3.891,-4.533 -4.871,-1.146 -4.871,0.556 l 0,22.352 -5.407,0 0,-23.419 c 0,-3.824 0.955,-6.26 3.386,-6.647 1.62,-0.258 3.959,-0.002 6.892,3.582 l 0,-3.57 z" />
      </g>
      <g
         transform="translate(932.0386,468.2534)"
         id="g548">
        <path
           inkscape:connector-curvature="0"
           id="path550"
           style="fill:#ffffff;fill-opacity:1;fill-rule:evenodd;stroke:none"
           d="m 0,0 0,17.929 c 0.689,0.804 1.613,1.498 2.723,1.424 2.541,-0.17 2.287,-3.388 2.287,-3.388 0,0 -0.043,-11.9 -0.043,-14.186 0,-2.286 -0.89,-3.091 -2.371,-3.133 C 1.33,-1.391 0.28,-0.315 0,0 m -5.406,-6.214 5.406,0 0,3.194 c 1.028,-1.267 2.721,-3.571 5.982,-3.194 5.46,0.629 4.465,7.866 4.465,7.866 l 0,15.413 c 0,5.082 -1.797,7.115 -4.972,7.115 C 2.879,24.18 0.707,21.888 0,21.051 l 0,12.903 -5.406,0 0,-40.168 z" />
      </g>
      <g
         transform="translate(916.4116,462.0396)"
         id="g552">
        <path
           inkscape:connector-curvature="0"
           id="path554"
           style="fill:#ffffff;fill-opacity:1;fill-rule:evenodd;stroke:none"
           d="m 0,0 5.406,0 0,30.055 L 0,30.055 0,7.146 C -3.891,2.613 -4.871,6 -4.871,7.702 l 0,22.353 -5.407,0 0,-23.419 c 0,-3.824 0.956,-6.261 3.385,-6.648 C -5.271,-0.27 -2.933,-0.014 0,3.57 L 0,0 Z" />
      </g>
      <g
         transform="translate(892.8784,462.0396)"
         id="g556">
        <path
           inkscape:connector-curvature="0"
           id="path558"
           style="fill:#ffffff;fill-opacity:1;fill-rule:evenodd;stroke:none"
           d="m 0,0 6.097,0 0,34.436 6.387,0 0,5.732 -18.871,0 0,-5.732 6.387,0 L 0,0 Z" />
      </g>
      <g
         transform="translate(957.4995,480.7886)"
         id="g560">
        <path
           inkscape:connector-curvature="0"
           id="path562"
           style="fill:#ffffff;fill-opacity:1;fill-rule:evenodd;stroke:none"
           d="m 0,0 0,4.234 c 0,1.421 -1.162,2.583 -2.582,2.583 -1.421,0 -2.584,-1.162 -2.584,-2.583 L -5.166,0 0,0 Z m -2.582,11.645 0,0 c 4.448,0 8.088,-3.64 8.088,-8.088 l 0,-8.13 -10.672,0 0,-6.818 c 0,-1.421 1.163,-2.583 2.584,-2.583 1.42,0 2.582,1.162 2.582,2.583 l 0,3.345 5.506,0 0,-2.615 c 0,-4.449 -3.64,-8.088 -8.088,-8.088 -4.449,0 -8.088,3.639 -8.088,8.088 l 0,14.218 c 0,4.448 3.639,8.088 8.088,8.088" />
      </g>
      <g
         transform="translate(792.7544,506.2007)"
         id="g564">
        <path
           inkscape:connector-curvature="0"
           id="path566"
           style="fill:#d9010a;fill-opacity:1;fill-rule:evenodd;stroke:none"
           d="m 0,0 c 5.981,-0.01 13.896,-0.086 19.738,-0.629 4.669,-0.434 5.837,-1.133 7.066,-2.247 3.182,-2.886 3.892,-10.697 3.998,-18.469 0.023,-1.673 0.023,-3.35 0,-5.023 -0.106,-7.773 -0.816,-15.584 -3.998,-18.469 -1.229,-1.114 -2.397,-1.812 -7.066,-2.247 C 13.896,-47.627 5.981,-47.703 0,-47.713 c -2.469,-0.004 -4.938,-0.004 -7.407,0 -5.982,0.01 -13.895,0.086 -19.738,0.629 -4.668,0.435 -5.836,1.133 -7.065,2.247 -3.211,2.91 -3.905,10.832 -4.001,18.67 -0.018,1.473 -0.018,2.948 -0.003,4.421 0.087,7.903 0.766,15.934 4.004,18.87 1.229,1.114 2.397,1.813 7.065,2.247 5.843,0.543 13.756,0.619 19.738,0.629 2.469,0.004 4.938,0.004 7.407,0" />
      </g>
      <g
         transform="translate(782.2944,492.2681)"
         id="g568">
        <path
           inkscape:connector-curvature="0"
           id="path570"
           style="fill:#ffffff;fill-opacity:1;fill-rule:evenodd;stroke:none"
           d="M 0,0 0,-20.481 17.42,-9.924 0,0 Z" />
      </g>
    </g>
  </g>
</svg>
