<?xml version="1.0" encoding="UTF-8" standalone="no"?>
<!-- Created with Inkscape (http://www.inkscape.org/) -->

<svg
   xmlns:dc="http://purl.org/dc/elements/1.1/"
   xmlns:cc="http://creativecommons.org/ns#"
   xmlns:rdf="http://www.w3.org/1999/02/22-rdf-syntax-ns#"
   xmlns:svg="http://www.w3.org/2000/svg"
   xmlns="http://www.w3.org/2000/svg"
   xmlns:sodipodi="http://sodipodi.sourceforge.net/DTD/sodipodi-0.dtd"
   xmlns:inkscape="http://www.inkscape.org/namespaces/inkscape"
   width="13.239818mm"
   height="11.492372mm"
   viewBox="0 0 46.91274 40.721001"
   id="svg3736"
   version="1.1"
   inkscape:version="0.91 r13725"
   sodipodi:docname="icon_room_service.svg">
  <defs
     id="defs3738">
    <clipPath
       clipPathUnits="userSpaceOnUse"
       id="clipPath116">
      <path
         d="m 0,701.029 1274.201,0 L 1274.201,0 0,0 0,701.029 Z"
         id="path118"
         inkscape:connector-curvature="0" />
    </clipPath>
    <clipPath
       clipPathUnits="userSpaceOnUse"
       id="clipPath174">
      <path
         d="m 0,701.029 1274.201,0 L 1274.201,0 0,0 0,701.029 Z"
         id="path176"
         inkscape:connector-curvature="0" />
    </clipPath>
    <clipPath
       clipPathUnits="userSpaceOnUse"
       id="clipPath376">
      <path
         d="m 0,701.029 1274.201,0 L 1274.201,0 0,0 0,701.029 Z"
         id="path378"
         inkscape:connector-curvature="0" />
    </clipPath>
    <clipPath
       clipPathUnits="userSpaceOnUse"
       id="clipPath376-3">
      <path
         d="m 0,701.029 1274.201,0 L 1274.201,0 0,0 0,701.029 Z"
         id="path378-6"
         inkscape:connector-curvature="0" />
    </clipPath>
    <clipPath
       clipPathUnits="userSpaceOnUse"
       id="clipPath138">
      <path
         d="m 0,701.029 1274.201,0 L 1274.201,0 0,0 0,701.029 Z"
         id="path140"
         inkscape:connector-curvature="0" />
    </clipPath>
    <clipPath
       clipPathUnits="userSpaceOnUse"
       id="clipPath154">
      <path
         d="m 0,701.029 1274.201,0 L 1274.201,0 0,0 0,701.029 Z"
         id="path156"
         inkscape:connector-curvature="0" />
    </clipPath>
    <clipPath
       clipPathUnits="userSpaceOnUse"
       id="clipPath64">
      <path
         d="m 0,701.029 1274.201,0 L 1274.201,0 0,0 0,701.029 Z"
         id="path66"
         inkscape:connector-curvature="0" />
    </clipPath>
    <clipPath
       clipPathUnits="userSpaceOnUse"
       id="clipPath84">
      <path
         d="m 0,701.029 1274.201,0 L 1274.201,0 0,0 0,701.029 Z"
         id="path86"
         inkscape:connector-curvature="0" />
    </clipPath>
  </defs>
  <sodipodi:namedview
     id="base"
     pagecolor="#ffffff"
     bordercolor="#666666"
     borderopacity="1.0"
     inkscape:pageopacity="0.0"
     inkscape:pageshadow="2"
     inkscape:zoom="1.4"
     inkscape:cx="-87.175549"
     inkscape:cy="-175.38715"
     inkscape:document-units="px"
     inkscape:current-layer="layer1"
     showgrid="false"
     inkscape:window-width="1871"
     inkscape:window-height="1056"
     inkscape:window-x="49"
     inkscape:window-y="24"
     inkscape:window-maximized="1"
     fit-margin-top="0"
     fit-margin-left="0"
     fit-margin-right="0"
     fit-margin-bottom="0" />
  <metadata
     id="metadata3741">
    <rdf:RDF>
      <cc:Work
         rdf:about="">
        <dc:format>image/svg+xml</dc:format>
        <dc:type
           rdf:resource="http://purl.org/dc/dcmitype/StillImage" />
        <dc:title></dc:title>
      </cc:Work>
    </rdf:RDF>
  </metadata>
  <g
     inkscape:groupmode="layer"
     id="layer2"
     inkscape:label="back"
     transform="translate(-184.29797,-214.15815)" />
  <g
     inkscape:label="Layer 1"
     inkscape:groupmode="layer"
     id="layer1"
     transform="translate(-184.29797,-214.15815)">
    <g
       transform="matrix(1.25,0,0,-1.25,-393.93178,306.8394)"
       id="g112">
      <g
         id="g114"
         clip-path="url(#clipPath116)">
        <g
           id="g120"
           transform="translate(467.0908,44.7432)">
          <path
             d="M 0,0 C 0.383,0.056 0.629,0.094 0.877,0.125 5.085,0.66 9.3,0.92 13.484,-0.008 c 1.299,-0.288 2.485,-0.248 3.661,0.36 4.418,2.281 8.845,4.546 13.253,6.851 0.484,0.252 0.933,0.663 1.255,1.105 0.445,0.603 0.219,1.208 -0.462,1.437 C 30.797,9.879 30.244,9.829 29.854,9.655 27.298,8.513 24.763,7.32 22.229,6.125 21.962,5.998 21.703,5.782 21.53,5.543 20.867,4.621 19.995,4.205 18.861,4.216 16.433,4.238 14.003,4.223 11.572,4.223 l -2.818,0 0,1.147 1.102,0 c 2.966,0 5.932,-0.007 8.9,0.003 1.182,0.004 1.971,0.609 1.966,1.465 C 20.719,7.624 20.099,8.031 18.798,7.992 15.821,7.903 12.901,8.055 10.04,9.067 8.955,9.452 7.684,9.422 6.501,9.391 4.171,9.33 2.359,7.813 0.302,6.979 0.155,6.918 0.015,6.637 0.013,6.458 -0.007,4.348 0,2.238 0,0 m -1.26,-2.054 0,10.231 -3.247,0 0,1.116 4.461,0 C -0.015,8.92 0.013,8.59 0.052,8.146 c 0.908,0.452 1.756,0.85 2.585,1.289 2.46,1.301 5.067,1.655 7.683,0.778 2.806,-0.941 5.645,-1.235 8.558,-1.073 1.414,0.08 2.467,-0.375 3.047,-1.841 0.945,0.428 1.857,0.833 2.76,1.252 1.572,0.727 3.131,1.473 4.707,2.195 1.294,0.594 2.622,0.291 3.29,-0.722 C 33.327,9.047 33.045,7.801 31.942,6.842 31.656,6.596 31.349,6.362 31.018,6.19 26.518,3.865 22.014,1.549 17.506,-0.761 16.163,-1.447 14.793,-1.535 13.296,-1.167 9.918,-0.334 6.471,-0.607 3.04,-0.787 2.443,-0.817 1.852,-1.004 1.26,-0.995 c -1.096,0.013 -1.439,-0.51 -1.267,-1.52 0.037,-0.215 0.018,-0.438 0.025,-0.66 -1.129,0 -2.425,1.121 -1.278,1.121"
             style="fill:#ffffff;fill-opacity:1;fill-rule:evenodd;stroke:none"
             id="path122"
             inkscape:connector-curvature="0" />
        </g>
        <g
           id="g124"
           transform="translate(486.2705,71.876)">
          <path
             d="M 0,0 C -0.522,0.826 -1.171,1.167 -1.968,1.078 -2.606,1.006 -3.229,0.78 -3.482,0 L 0,0 Z m -15.028,-12.904 c 0.301,-0.947 0.916,-1.099 1.665,-1.098 7.725,0.007 15.45,0.003 23.176,0.01 0.307,0 0.665,0.008 0.913,0.156 0.287,0.174 0.478,0.507 0.854,0.932 l -26.608,0 z m 2.742,1.298 21.074,0 C 8.428,-5.25 3.361,-0.655 -2.616,-1.15 -8.054,-1.602 -12.834,-6.772 -12.286,-11.606 M -0.979,2.269 c 1.046,-0.547 1.996,-1.171 2.32,-2.428 0.045,-0.177 0.358,-0.328 0.577,-0.412 4.953,-1.885 7.586,-5.505 8.069,-10.746 0.01,-0.093 0.034,-0.185 0.076,-0.392 l 2.456,0 c 0.362,-2.278 -0.612,-3.436 -2.773,-3.436 -7.637,-0.001 -15.273,0 -22.909,0 -2.316,0 -3.191,0.973 -2.952,3.38 l 2.473,0 c 0.121,0.822 0.187,1.568 0.346,2.294 0.931,4.273 3.484,7.163 7.51,8.821 0.4,0.164 0.827,0.541 1.005,0.928 0.477,1.032 1.323,1.56 2.287,1.991 l 1.515,0 z"
             style="fill:#ffffff;fill-opacity:1;fill-rule:evenodd;stroke:none"
             id="path126"
             inkscape:connector-curvature="0" />
        </g>
        <path
           d="m 482.459,43.578 5.449,0 0,-1.366 -5.449,0 0,1.366 z"
           style="fill:#ffffff;fill-opacity:1;fill-rule:evenodd;stroke:none"
           id="path128"
           inkscape:connector-curvature="0" />
      </g>
    </g>
  </g>
</svg>
