<?xml version="1.0" encoding="UTF-8" standalone="no"?>
<!-- Created with Inkscape (http://www.inkscape.org/) -->

<svg
   xmlns:dc="http://purl.org/dc/elements/1.1/"
   xmlns:cc="http://creativecommons.org/ns#"
   xmlns:rdf="http://www.w3.org/1999/02/22-rdf-syntax-ns#"
   xmlns:svg="http://www.w3.org/2000/svg"
   xmlns="http://www.w3.org/2000/svg"
   xmlns:sodipodi="http://sodipodi.sourceforge.net/DTD/sodipodi-0.dtd"
   xmlns:inkscape="http://www.inkscape.org/namespaces/inkscape"
   width="27.750277mm"
   height="14.40463mm"
   viewBox="0 0 98.327752 51.040026"
   id="svg3736"
   version="1.1"
   inkscape:version="0.91 r13725"
   sodipodi:docname="icon_entretenimiento.svg">
  <defs
     id="defs3738">
    <clipPath
       clipPathUnits="userSpaceOnUse"
       id="clipPath116">
      <path
         d="m 0,701.029 1274.201,0 L 1274.201,0 0,0 0,701.029 Z"
         id="path118"
         inkscape:connector-curvature="0" />
    </clipPath>
    <clipPath
       clipPathUnits="userSpaceOnUse"
       id="clipPath174">
      <path
         d="m 0,701.029 1274.201,0 L 1274.201,0 0,0 0,701.029 Z"
         id="path176"
         inkscape:connector-curvature="0" />
    </clipPath>
    <clipPath
       clipPathUnits="userSpaceOnUse"
       id="clipPath376">
      <path
         d="m 0,701.029 1274.201,0 L 1274.201,0 0,0 0,701.029 Z"
         id="path378"
         inkscape:connector-curvature="0" />
    </clipPath>
    <clipPath
       clipPathUnits="userSpaceOnUse"
       id="clipPath376-3">
      <path
         d="m 0,701.029 1274.201,0 L 1274.201,0 0,0 0,701.029 Z"
         id="path378-6"
         inkscape:connector-curvature="0" />
    </clipPath>
    <clipPath
       clipPathUnits="userSpaceOnUse"
       id="clipPath138">
      <path
         d="m 0,701.029 1274.201,0 L 1274.201,0 0,0 0,701.029 Z"
         id="path140"
         inkscape:connector-curvature="0" />
    </clipPath>
    <clipPath
       clipPathUnits="userSpaceOnUse"
       id="clipPath154">
      <path
         d="m 0,701.029 1274.201,0 L 1274.201,0 0,0 0,701.029 Z"
         id="path156"
         inkscape:connector-curvature="0" />
    </clipPath>
    <clipPath
       clipPathUnits="userSpaceOnUse"
       id="clipPath64">
      <path
         d="m 0,701.029 1274.201,0 L 1274.201,0 0,0 0,701.029 Z"
         id="path66"
         inkscape:connector-curvature="0" />
    </clipPath>
    <clipPath
       clipPathUnits="userSpaceOnUse"
       id="clipPath84">
      <path
         d="m 0,701.029 1274.201,0 L 1274.201,0 0,0 0,701.029 Z"
         id="path86"
         inkscape:connector-curvature="0" />
    </clipPath>
  </defs>
  <sodipodi:namedview
     id="base"
     pagecolor="#d9d9d9"
     bordercolor="#666666"
     borderopacity="1.0"
     inkscape:pageopacity="0"
     inkscape:pageshadow="2"
     inkscape:zoom="5.6"
     inkscape:cx="-0.84080214"
     inkscape:cy="20.03915"
     inkscape:document-units="px"
     inkscape:current-layer="layer1"
     showgrid="false"
     inkscape:window-width="1317"
     inkscape:window-height="744"
     inkscape:window-x="1969"
     inkscape:window-y="24"
     inkscape:window-maximized="1"
     fit-margin-top="2.7755576e-17"
     fit-margin-left="0"
     fit-margin-right="0"
     fit-margin-bottom="2.7755576e-17" />
  <metadata
     id="metadata3741">
    <rdf:RDF>
      <cc:Work
         rdf:about="">
        <dc:format>image/svg+xml</dc:format>
        <dc:type
           rdf:resource="http://purl.org/dc/dcmitype/StillImage" />
        <dc:title></dc:title>
      </cc:Work>
    </rdf:RDF>
  </metadata>
  <g
     inkscape:groupmode="layer"
     id="layer2"
     inkscape:label="back"
     transform="translate(-125.83612,-172.61278)" />
  <g
     inkscape:label="Layer 1"
     inkscape:groupmode="layer"
     id="layer1"
     transform="translate(-125.83612,-172.61278)">
    <g
       transform="matrix(1.25,0,0,-1.25,-649.38514,269.06593)"
       id="g170">
      <g
         id="g172"
         clip-path="url(#clipPath174)">
        <g
           id="g178"
           transform="translate(688.8613,61.7295)">
          <path
             d="m 0,0 c -0.905,-0.085 -1.706,-0.427 -2.227,-1.249 -0.464,-0.737 -0.178,-1.406 0.675,-1.574 0.957,-0.192 1.764,0.15 2.437,0.81 0.38,0.371 0.639,0.829 0.421,1.364 C 1.082,-0.103 0.554,-0.035 0,0 m -8.404,-2.755 c -1.072,-0.155 -1.883,-0.519 -2.426,-1.344 -0.5,-0.76 -0.152,-1.509 0.747,-1.62 0.977,-0.122 1.804,0.213 2.451,0.946 0.32,0.361 0.6,0.834 0.294,1.265 -0.236,0.335 -0.701,0.51 -1.066,0.753 M 1.379,9.376 C -1.146,8.531 -3.57,7.728 -5.99,6.902 -6.108,6.863 -6.245,6.673 -6.255,6.546 -6.285,6.048 -6.266,5.544 -6.266,4.962 c 2.527,0.847 4.985,1.664 7.44,2.498 0.091,0.03 0.194,0.194 0.198,0.3 0.02,0.502 0.007,1.002 0.007,1.616 m -8.597,-11.572 0,0.677 c 0,2.781 0.008,5.561 -0.01,8.339 -0.002,0.507 0.151,0.76 0.653,0.92 2.658,0.86 5.304,1.76 7.957,2.643 0.754,0.25 0.971,0.102 0.971,-0.675 C 2.357,6.229 2.313,2.746 2.365,-0.731 2.4,-2.995 -0.529,-4.464 -2.32,-3.584 -3.325,-3.09 -3.673,-2.009 -3.168,-0.961 -2.521,0.383 -0.67,1.234 0.781,0.852 0.946,0.81 1.113,0.758 1.332,0.695 l 0,5.748 C 1.119,6.391 0.935,6.353 0.76,6.295 -1.414,5.573 -3.58,4.832 -5.761,4.133 -6.174,4 -6.28,3.805 -6.275,3.396 c 0.019,-2.314 -0.056,-4.63 0.029,-6.939 0.078,-2.237 -2.758,-3.769 -4.641,-2.93 -1.048,0.468 -1.41,1.575 -0.889,2.646 0.674,1.389 2.557,2.214 4.062,1.779 0.147,-0.043 0.289,-0.088 0.496,-0.148"
             style="fill:#ffffff;fill-opacity:1;fill-rule:evenodd;stroke:none"
             id="path180"
             inkscape:connector-curvature="0" />
        </g>
        <g
           id="g182"
           transform="translate(691.7988,52.5918)">
          <path
             d="M 0,0 C 1.187,0.093 1.969,0.432 2.503,1.209 3.027,1.978 2.732,2.694 1.819,2.854 0.864,3.024 0.058,2.675 -0.604,2.003 -0.979,1.626 -1.271,1.113 -0.956,0.645 -0.722,0.297 -0.212,0.134 0,0 m 2.751,3.616 0,0.716 0,8.626 c 0,0.174 -0.04,0.375 0.03,0.517 0.082,0.17 0.246,0.365 0.409,0.407 0.127,0.032 0.405,-0.122 0.453,-0.253 0.455,-1.187 1.376,-2.005 2.215,-2.89 C 6.77,9.784 7.077,8.608 7.037,7.267 l -0.939,0 C 6.264,9.128 5.109,10.302 3.753,11.462 3.742,11.236 3.723,11.044 3.723,10.852 3.723,8.014 3.652,5.176 3.743,2.341 3.815,0.022 1.199,-1.314 -0.529,-0.817 -1.888,-0.428 -2.413,0.824 -1.733,2.07 -1.052,3.32 0.655,4.099 2.049,3.789 2.254,3.744 2.456,3.688 2.751,3.616"
             style="fill:#ffffff;fill-opacity:1;fill-rule:evenodd;stroke:none"
             id="path184"
             inkscape:connector-curvature="0" />
        </g>
        <g
           id="g186"
           transform="translate(621.2207,57.8838)">
          <path
             d="m 0,0 c 0.018,-0.348 0.017,-0.725 0.062,-1.096 0.183,-1.432 1.279,-2.179 2.699,-1.864 0.802,0.178 1.481,0.605 1.948,1.246 0.656,0.902 1.229,1.866 1.781,2.841 0.289,0.505 0.624,0.8 1.229,0.795 1.254,-0.016 2.509,-0.016 3.764,0 0.601,0.005 0.96,-0.266 1.227,-0.793 0.394,-0.764 0.763,-1.559 1.295,-2.223 0.502,-0.627 1.124,-1.237 1.825,-1.613 1.699,-0.908 3.33,0.031 3.311,1.947 -0.012,1.464 -0.218,2.948 -0.53,4.38 C 18.344,4.849 17.904,6.063 17.356,7.194 16.752,8.439 15.623,9.029 14.215,8.948 13.547,8.911 12.881,8.764 12.211,8.719 10.944,8.632 9.675,8.51 8.411,8.546 7.353,8.572 6.301,8.826 5.24,8.938 3.709,9.101 2.535,8.499 1.767,7.158 1.501,6.69 1.262,6.196 1.089,5.687 0.47,3.85 0.128,1.961 0,0 m 20.285,-1.119 c -0.035,-0.082 -0.087,-0.162 -0.102,-0.249 -0.441,-2.161 -2.244,-3.2 -4.349,-2.494 -1.168,0.387 -2.037,1.184 -2.722,2.167 -0.478,0.686 -0.881,1.43 -1.263,2.177 C 11.686,0.8 11.512,0.907 11.164,0.899 10.117,0.879 9.068,0.874 8.02,0.902 7.659,0.912 7.497,0.771 7.354,0.46 6.753,-0.842 6.001,-2.045 4.894,-2.982 3.984,-3.754 2.957,-4.162 1.741,-4.044 c -1.619,0.159 -2.722,1.302 -2.776,3.192 -0.082,2.875 0.411,5.679 1.702,8.27 1.091,2.192 2.868,2.949 5.506,2.547 0.933,-0.144 1.869,-0.279 2.885,-0.429 0,0.934 -0.035,1.776 0.018,2.609 0.013,0.239 0.217,0.569 0.424,0.668 0.348,0.17 0.645,-0.152 0.65,-0.659 0.01,-0.838 0.002,-1.676 0.002,-2.623 0.972,0.145 1.865,0.323 2.769,0.402 0.813,0.068 1.653,0.128 2.457,0.012 1.367,-0.194 2.307,-1.079 2.999,-2.235 0.904,-1.504 1.256,-3.19 1.571,-4.884 0.119,-0.638 0.225,-1.281 0.337,-1.919 l 0,-2.026 z"
             style="fill:#ffffff;fill-opacity:1;fill-rule:evenodd;stroke:none"
             id="path188"
             inkscape:connector-curvature="0" />
        </g>
        <g
           id="g190"
           transform="translate(626.9512,61.7617)">
          <path
             d="m 0,0 c -0.058,-0.332 -0.083,-0.757 -0.227,-1.138 -0.035,-0.096 -0.448,-0.082 -0.685,-0.067 -0.989,0.07 -0.22,0.894 -0.682,1.359 -0.346,0.136 -1.393,-0.419 -1.179,0.86 0.06,0.369 0.192,0.485 0.527,0.476 0.258,-0.01 0.515,-0.002 0.757,-0.002 0.076,0.458 0.107,0.88 0.24,1.267 0.033,0.088 0.412,0.082 0.632,0.078 C 0.435,2.819 -0.322,1.943 0.087,1.49 0.458,1.328 1.451,1.897 1.304,0.656 1.182,-0.37 0.347,0.462 0,0"
             style="fill:#ffffff;fill-opacity:1;fill-rule:evenodd;stroke:none"
             id="path192"
             inkscape:connector-curvature="0" />
        </g>
        <g
           id="g194"
           transform="translate(636.7715,63.2881)">
          <path
             d="m 0,0 c 0.417,-0.051 0.682,-0.265 0.692,-0.712 0.015,-0.417 -0.33,-0.765 -0.734,-0.727 -0.43,0.044 -0.689,0.304 -0.678,0.736 C -0.707,-0.275 -0.441,-0.038 0,0"
             style="fill:#ffffff;fill-opacity:1;fill-rule:evenodd;stroke:none"
             id="path196"
             inkscape:connector-curvature="0" />
        </g>
        <g
           id="g198"
           transform="translate(635.2783,61.8291)">
          <path
             d="M 0,0 C 0.416,-0.037 0.691,-0.235 0.725,-0.683 0.756,-1.104 0.432,-1.462 0.02,-1.441 -0.413,-1.419 -0.68,-1.165 -0.689,-0.737 -0.697,-0.308 -0.436,-0.061 0,0"
             style="fill:#ffffff;fill-opacity:1;fill-rule:evenodd;stroke:none"
             id="path200"
             inkscape:connector-curvature="0" />
        </g>
        <g
           id="g202"
           transform="translate(635.3379,64.752)">
          <path
             d="m 0,0 c 0.427,-0.067 0.685,-0.292 0.687,-0.742 0,-0.398 -0.331,-0.732 -0.719,-0.697 -0.431,0.037 -0.695,0.279 -0.685,0.731 C -0.707,-0.255 -0.433,-0.045 0,0"
             style="fill:#ffffff;fill-opacity:1;fill-rule:evenodd;stroke:none"
             id="path204"
             inkscape:connector-curvature="0" />
        </g>
        <g
           id="g206"
           transform="translate(634.5654,62.6152)">
          <path
             d="m 0,0 c 0,-0.456 -0.319,-0.792 -0.711,-0.764 -0.43,0.03 -0.698,0.267 -0.693,0.719 0.004,0.447 0.26,0.707 0.702,0.705 C -0.26,0.657 -0.03,0.383 0,0"
             style="fill:#ffffff;fill-opacity:1;fill-rule:evenodd;stroke:none"
             id="path208"
             inkscape:connector-curvature="0" />
        </g>
        <path
           d="m 672.67,43.351 -18.821,0 0,16.011 18.821,0 0,-16.011 z"
           style="fill:none;stroke:#ffffff;stroke-width:1.24100006;stroke-linecap:butt;stroke-linejoin:miter;stroke-miterlimit:10;stroke-dasharray:none;stroke-opacity:1"
           id="path210"
           inkscape:connector-curvature="0" />
        <g
           id="g212"
           transform="translate(653.8486,48.5742)">
          <path
             d="m 0,0 -6.61,-3.815 0,13.194 L 0,5.562"
             style="fill:none;stroke:#ffffff;stroke-width:1.24100006;stroke-linecap:butt;stroke-linejoin:miter;stroke-miterlimit:10;stroke-dasharray:none;stroke-opacity:1"
             id="path214"
             inkscape:connector-curvature="0" />
        </g>
        <g
           id="g216"
           transform="translate(672.9951,64.1758)">
          <path
             d="m 0,0 c 0,-2.658 -2.153,-4.814 -4.813,-4.814 -2.662,0 -4.818,2.156 -4.818,4.814 0,2.66 2.156,4.816 4.818,4.816 C -2.153,4.816 0,2.66 0,0 Z"
             style="fill:none;stroke:#ffffff;stroke-width:1.24100006;stroke-linecap:butt;stroke-linejoin:miter;stroke-miterlimit:10;stroke-dasharray:none;stroke-opacity:1"
             id="path218"
             inkscape:connector-curvature="0" />
        </g>
        <g
           id="g220"
           transform="translate(663.4795,64.1758)">
          <path
             d="m 0,0 c 0,-2.658 -2.156,-4.814 -4.814,-4.814 -2.661,0 -4.817,2.156 -4.817,4.814 0,2.66 2.156,4.816 4.817,4.816 C -2.156,4.816 0,2.66 0,0 Z"
             style="fill:none;stroke:#ffffff;stroke-width:1.24100006;stroke-linecap:butt;stroke-linejoin:miter;stroke-miterlimit:10;stroke-dasharray:none;stroke-opacity:1"
             id="path222"
             inkscape:connector-curvature="0" />
        </g>
        <g
           id="g224"
           transform="translate(660.9189,64.2734)">
          <path
             d="m 0,0 c 0,-1.284 -1.042,-2.324 -2.326,-2.324 -1.286,0 -2.328,1.04 -2.328,2.324 0,1.286 1.042,2.328 2.328,2.328 C -1.042,2.328 0,1.286 0,0 Z"
             style="fill:none;stroke:#ffffff;stroke-width:1.24100006;stroke-linecap:butt;stroke-linejoin:miter;stroke-miterlimit:10;stroke-dasharray:none;stroke-opacity:1"
             id="path226"
             inkscape:connector-curvature="0" />
        </g>
        <g
           id="g228"
           transform="translate(670.5088,64.2734)">
          <path
             d="m 0,0 c 0,-1.284 -1.043,-2.324 -2.327,-2.324 -1.285,0 -2.328,1.04 -2.328,2.324 0,1.286 1.043,2.328 2.328,2.328 C -1.043,2.328 0,1.286 0,0 Z"
             style="fill:none;stroke:#ffffff;stroke-width:1.24100006;stroke-linecap:butt;stroke-linejoin:miter;stroke-miterlimit:10;stroke-dasharray:none;stroke-opacity:1"
             id="path230"
             inkscape:connector-curvature="0" />
        </g>
        <g
           id="g232"
           transform="translate(656.9648,46.2783)">
          <path
             d="M 0,0 13.544,0"
             style="fill:none;stroke:#ffffff;stroke-width:1.24100006;stroke-linecap:round;stroke-linejoin:miter;stroke-miterlimit:10;stroke-dasharray:none;stroke-opacity:1"
             id="path234"
             inkscape:connector-curvature="0" />
        </g>
      </g>
    </g>
  </g>
</svg>
