<?xml version="1.0" encoding="UTF-8" standalone="no"?>
<!-- Created with Inkscape (http://www.inkscape.org/) -->

<svg
   xmlns:dc="http://purl.org/dc/elements/1.1/"
   xmlns:cc="http://creativecommons.org/ns#"
   xmlns:rdf="http://www.w3.org/1999/02/22-rdf-syntax-ns#"
   xmlns:svg="http://www.w3.org/2000/svg"
   xmlns="http://www.w3.org/2000/svg"
   xmlns:sodipodi="http://sodipodi.sourceforge.net/DTD/sodipodi-0.dtd"
   xmlns:inkscape="http://www.inkscape.org/namespaces/inkscape"
   width="33.01506mm"
   height="33.015202mm"
   viewBox="0 0 116.9825 116.983"
   id="svg4394"
   version="1.1"
   inkscape:version="0.91 r13725"
   sodipodi:docname="icon_imprimir.svg">
  <defs
     id="defs4396" />
  <sodipodi:namedview
     id="base"
     pagecolor="#ffffff"
     bordercolor="#666666"
     borderopacity="1.0"
     inkscape:pageopacity="0.0"
     inkscape:pageshadow="2"
     inkscape:zoom="0.35"
     inkscape:cx="-380.79451"
     inkscape:cy="18.491505"
     inkscape:document-units="px"
     inkscape:current-layer="layer1"
     showgrid="false"
     fit-margin-top="0"
     fit-margin-left="0"
     fit-margin-right="0"
     fit-margin-bottom="0"
     inkscape:window-width="1871"
     inkscape:window-height="1056"
     inkscape:window-x="49"
     inkscape:window-y="24"
     inkscape:window-maximized="1" />
  <metadata
     id="metadata4399">
    <rdf:RDF>
      <cc:Work
         rdf:about="">
        <dc:format>image/svg+xml</dc:format>
        <dc:type
           rdf:resource="http://purl.org/dc/dcmitype/StillImage" />
        <dc:title></dc:title>
      </cc:Work>
    </rdf:RDF>
  </metadata>
  <g
     inkscape:label="Layer 1"
     inkscape:groupmode="layer"
     id="layer1"
     transform="translate(-261.5088,-433.87071)">
    <g
       transform="matrix(1.25,0,0,-1.25,-774.7312,826.76621)"
       id="g3902">
      <path
         d="m 895.837,274.432 12.961,0 0,6.223 -12.961,0 0,-6.223 z m 6.41,-13.773 -52.92,0 0,-32.883 52.92,0 0,32.883 z m -73.255,-13.342 0,40.412 c 1.968,5.432 3.326,6.381 9.132,6.381 l 75.322,0 c 5.804,0 7.168,-0.953 9.132,-6.381 l 0,-40.412 c -1.686,-7.675 -7.901,-6.335 -13.556,-6.402 0,-3.769 0.002,-7.275 0,-10.783 -0.004,-6.216 -0.971,-7.581 -6.65,-9.402 l -53.174,0 c -5.681,1.818 -6.645,3.181 -6.65,9.4 -0.002,3.508 0,7.016 0,10.781 -5.648,0.082 -11.878,-1.286 -13.556,6.406"
         style="fill:#ffffff;fill-opacity:1;fill-rule:nonzero;stroke:none"
         id="path488"
         inkscape:connector-curvature="0" />
      <g
         id="g490"
         transform="translate(902.3721,314.3164)">
        <path
           d="m 0,0 c 6.311,-2.006 7.464,-4.351 6.43,-13.341 l -65.869,0 C -60.601,-4.699 -59.626,-1.577 -53.174,0 L 0,0 Z"
           style="fill:#ffffff;fill-opacity:1;fill-rule:evenodd;stroke:none"
           id="path492"
           inkscape:connector-curvature="0" />
      </g>
    </g>
  </g>
</svg>
