<?xml version="1.0" encoding="UTF-8" standalone="no"?>
<!-- Created with Inkscape (http://www.inkscape.org/) -->

<svg
   xmlns:dc="http://purl.org/dc/elements/1.1/"
   xmlns:cc="http://creativecommons.org/ns#"
   xmlns:rdf="http://www.w3.org/1999/02/22-rdf-syntax-ns#"
   xmlns:svg="http://www.w3.org/2000/svg"
   xmlns="http://www.w3.org/2000/svg"
   xmlns:sodipodi="http://sodipodi.sourceforge.net/DTD/sodipodi-0.dtd"
   xmlns:inkscape="http://www.inkscape.org/namespaces/inkscape"
   width="54.451954mm"
   height="16.328672mm"
   viewBox="0 0 192.93999 57.857501"
   id="svg4497"
   version="1.1"
   inkscape:version="0.91 r13725"
   sodipodi:docname="icon_spotify.svg">
  <defs
     id="defs4499">
    <clipPath
       clipPathUnits="userSpaceOnUse"
       id="clipPath648">
      <path
         d="m 1082.815,473.192 c 0,-7.94 6.436,-14.377 14.377,-14.377 l 0,0 c 7.939,0 14.376,6.437 14.376,14.377 l 0,0 c 0,7.939 -6.437,14.376 -14.376,14.376 l 0,0 c -7.941,0 -14.377,-6.437 -14.377,-14.376"
         id="path650"
         inkscape:connector-curvature="0" />
    </clipPath>
    <linearGradient
       x1="0"
       y1="0"
       x2="1"
       y2="0"
       gradientUnits="userSpaceOnUse"
       gradientTransform="matrix(-1.2e-6,-27.689388,-27.689388,1.2e-6,1097.1914,487.36475)"
       spreadMethod="pad"
       id="linearGradient656">
      <stop
         style="stop-opacity:1;stop-color:#9bc3e7"
         offset="0"
         id="stop658" />
      <stop
         style="stop-opacity:1;stop-color:#1d6db1"
         offset="1"
         id="stop660" />
    </linearGradient>
    <clipPath
       clipPathUnits="userSpaceOnUse"
       id="clipPath732">
      <path
         d="m 0,701.01 1274.17,0 L 1274.17,0 0,0 0,701.01 Z"
         id="path734"
         inkscape:connector-curvature="0" />
    </clipPath>
  </defs>
  <sodipodi:namedview
     id="base"
     pagecolor="#ffffff"
     bordercolor="#666666"
     borderopacity="1.0"
     inkscape:pageopacity="0.0"
     inkscape:pageshadow="2"
     inkscape:zoom="1.4"
     inkscape:cx="243.76479"
     inkscape:cy="-6.6346243"
     inkscape:document-units="px"
     inkscape:current-layer="layer1"
     showgrid="false"
     fit-margin-top="0"
     fit-margin-left="0"
     fit-margin-right="0"
     fit-margin-bottom="0"
     inkscape:window-width="1871"
     inkscape:window-height="1056"
     inkscape:window-x="49"
     inkscape:window-y="24"
     inkscape:window-maximized="1" />
  <metadata
     id="metadata4502">
    <rdf:RDF>
      <cc:Work
         rdf:about="">
        <dc:format>image/svg+xml</dc:format>
        <dc:type
           rdf:resource="http://purl.org/dc/dcmitype/StillImage" />
        <dc:title></dc:title>
      </cc:Work>
    </rdf:RDF>
  </metadata>
  <g
     inkscape:label="Layer 1"
     inkscape:groupmode="layer"
     id="layer1"
     transform="translate(522.47323,-785.89042)">
    <g
       transform="matrix(1.25,0,0,-1.25,-1117.5961,1215.3953)"
       id="g4469">
      <g
         transform="translate(522.3833,320.4629)"
         id="g572">
        <path
           inkscape:connector-curvature="0"
           id="path574"
           style="fill:#63b057;fill-opacity:1;fill-rule:nonzero;stroke:none"
           d="m 0,0 c 0,-12.783 -10.362,-23.145 -23.144,-23.145 -12.78,0 -23.141,10.362 -23.141,23.145 0,12.781 10.361,23.141 23.141,23.141 C -10.362,23.141 0,12.781 0,0" />
      </g>
      <g
         transform="translate(537.5288,331.2559)"
         id="g576">
        <path
           inkscape:connector-curvature="0"
           id="path578"
           style="fill:#63b057;fill-opacity:1;fill-rule:nonzero;stroke:none"
           d="m 0,0 c 0.709,0 3.799,0.23 7.556,-2.605 0.169,-0.127 0.203,-0.368 0.08,-0.54 L 5.831,-5.674 C 5.701,-5.855 5.448,-5.893 5.272,-5.756 4.939,-5.498 4.374,-5.092 3.71,-4.752 2.643,-4.207 1.225,-3.746 0,-3.746 c -1.224,0 -3.188,-0.4 -3.188,-2.328 0,-1.551 1.371,-2.133 5.601,-3.176 2.752,-0.715 5.964,-2.037 5.964,-6.256 0,-3.879 -3.225,-6.326 -7.674,-6.326 -2.68,0 -6.355,1.016 -8.689,3.367 -0.142,0.143 -0.145,0.373 -0.015,0.528 l 2.03,2.388 c 0.144,0.17 0.401,0.188 0.564,0.033 0.771,-0.72 3.025,-2.546 6.098,-2.546 3.662,0 3.516,2.207 3.516,2.533 0,0.703 -0.51,1.685 -2.315,2.193 -1.806,0.51 -6.34,1.359 -8.038,3.334 -1.042,1.236 -1.188,2.607 -1.188,3.637 C -7.334,-4.037 -5.83,0 0,0" />
      </g>
      <g
         transform="translate(555.5464,313)"
         id="g580">
        <path
           inkscape:connector-curvature="0"
           id="path582"
           style="fill:#63b057;fill-opacity:1;fill-rule:nonzero;stroke:none"
           d="m 0,0 c -2.279,0 -4.215,1.98 -4.215,4.814 0,1.727 1.083,4.745 4.169,4.745 3.087,0 4.262,-2.487 4.262,-4.745 C 4.216,2.557 2.971,0 0,0 m 0.869,13.203 c -3.265,0 -5.025,-2.4 -5.025,-2.4 l 0,1.664 c 0,0.217 -0.176,0.392 -0.393,0.392 l -3.35,0 c -0.217,0 -0.392,-0.175 -0.392,-0.392 l 0,-20.113 c 0,-0.217 0.175,-0.391 0.392,-0.391 l 3.362,0 c 0.216,0 0.391,0.174 0.391,0.391 l 0,6.265 c 0,0 1.636,-2.195 5.191,-2.195 2.819,0 7.362,2.264 7.362,8.32 0,6.059 -4.272,8.459 -7.538,8.459" />
      </g>
      <g
         transform="translate(573.6616,313)"
         id="g584">
        <path
           inkscape:connector-curvature="0"
           id="path586"
           style="fill:#63b057;fill-opacity:1;fill-rule:nonzero;stroke:none"
           d="m 0,0 c -2.153,0 -4.503,1.803 -4.503,4.795 0,2.99 2.118,4.764 4.503,4.764 1.831,0 4.434,-1.514 4.434,-4.764 C 4.434,1.543 2.153,0 0,0 m -0.035,13.203 c -5.274,0 -8.545,-4.336 -8.545,-8.424 0,-4.48 3.478,-8.394 8.58,-8.394 5.102,0 8.579,4.031 8.579,8.394 0,4.366 -3.339,8.424 -8.614,8.424" />
      </g>
      <g
         transform="translate(592.7896,322.6504)"
         id="g588">
        <path
           inkscape:connector-curvature="0"
           id="path590"
           style="fill:#63b057;fill-opacity:1;fill-rule:nonzero;stroke:none"
           d="m 0,0 0,2.855 c 0,0.217 -0.175,0.393 -0.392,0.393 l -3.822,0 0,3.867 c 0,0.217 -0.176,0.393 -0.392,0.393 l -3.293,0 c -0.217,0 -0.392,-0.176 -0.392,-0.393 l 0,-3.867 -1.612,0 c -0.216,0 -0.392,-0.176 -0.392,-0.393 l 0,-2.855 c 0,-0.215 0.176,-0.391 0.392,-0.391 l 1.612,0 0,-8.086 c 0,-1.818 0.829,-4.697 4.445,-4.697 1.663,0 3.085,0.582 3.62,0.832 0.138,0.065 0.226,0.203 0.226,0.356 l 0,2.797 c 0,0.251 -0.281,0.402 -0.488,0.259 -0.38,-0.259 -0.996,-0.537 -1.908,-0.537 -1.726,0 -1.818,1.176 -1.818,2.004 l 0,7.072 3.822,0 C -0.175,-0.391 0,-0.215 0,0" />
      </g>
      <g
         transform="translate(599.0796,330.4043)"
         id="g592">
        <path
           inkscape:connector-curvature="0"
           id="path594"
           style="fill:#63b057;fill-opacity:1;fill-rule:nonzero;stroke:none"
           d="m 0,0 c 0,-1.406 -1.14,-2.545 -2.545,-2.545 -1.405,0 -2.545,1.139 -2.545,2.545 0,1.404 1.14,2.543 2.545,2.543 C -1.14,2.543 0,1.404 0,0" />
      </g>
      <g
         transform="translate(598.1792,309.7539)"
         id="g596">
        <path
           inkscape:connector-curvature="0"
           id="path598"
           style="fill:#63b057;fill-opacity:1;fill-rule:nonzero;stroke:none"
           d="m 0,0 -3.3,0 c -0.217,0 -0.391,0.174 -0.391,0.391 l 0,15.361 c 0,0.217 0.174,0.393 0.391,0.393 l 3.3,0 c 0.217,0 0.392,-0.176 0.392,-0.393 l 0,-15.361 C 0.392,0.174 0.217,0 0,0" />
      </g>
      <g
         transform="translate(602.2104,322.2598)"
         id="g600">
        <path
           inkscape:connector-curvature="0"
           id="path602"
           style="fill:#63b057;fill-opacity:1;fill-rule:nonzero;stroke:none"
           d="m 0,0 -1.59,0 c -0.216,0 -0.391,0.176 -0.391,0.391 l 0,2.857 c 0,0.215 0.175,0.391 0.391,0.391 l 1.59,0 0,1.037 c 0,0.689 0.115,5.043 4.997,5.043 2.419,0 3.208,-0.541 3.208,-0.541 l 0,-2.938 C 8.205,5.947 8.102,5.705 7.79,5.826 7.479,5.947 6.564,6.189 5.82,6.189 5.078,6.189 4.059,5.758 4.059,4.445 l 0,-0.806 5.985,0 c 0.161,0 0.308,-0.1 0.365,-0.25 l 4.188,-10.828 3.76,10.791 c 0.055,0.158 0.204,0.263 0.37,0.263 l 3.678,0 c 0.174,0 0.295,-0.174 0.232,-0.336 -0.863,-2.23 -5.752,-14.883 -6.382,-16.488 -0.691,-1.764 -1.865,-4.164 -5.234,-4.164 -1.955,0 -3.214,0.656 -3.739,0.998 -0.164,0.107 -0.224,0.318 -0.141,0.496 l 1.199,2.572 c 0.051,0.108 0.182,0.149 0.284,0.086 0.343,-0.211 1.124,-0.619 2.034,-0.619 1.338,0 1.935,1.58 1.935,1.58 L 7.462,0 4.085,0 l 0,-12.145 c 0,-0.216 -0.175,-0.39 -0.392,-0.39 l -3.31,0 c -0.217,0 -0.391,0.174 -0.391,0.39 L 0,0 Z" />
      </g>
      <g
         transform="translate(628.0444,323.4805)"
         id="g604">
        <path
           inkscape:connector-curvature="0"
           id="path606"
           style="fill:#63b057;fill-opacity:1;fill-rule:nonzero;stroke:none"
           d="m 0,0 c 0.287,0 0.451,0.152 0.451,0.379 l 0,0.008 c 0,0.252 -0.176,0.383 -0.463,0.383 l -0.584,0 0,-0.77 L 0,0 Z m -1.185,1.299 1.224,0 c 0.34,0 0.604,-0.096 0.779,-0.272 C 0.967,0.879 1.047,0.668 1.047,0.418 l 0,-0.008 c 0,-0.433 -0.233,-0.705 -0.572,-0.83 l 0.653,-0.955 -0.689,0 -0.573,0.855 -0.008,0 -0.454,0 0,-0.855 -0.589,0 0,2.674 z" />
      </g>
      <g
         transform="translate(627.9253,325.6289)"
         id="g608">
        <path
           inkscape:connector-curvature="0"
           id="path610"
           style="fill:#63b057;fill-opacity:1;fill-rule:nonzero;stroke:none"
           d="m 0,0 c -1.239,0 -2.249,-1.01 -2.249,-2.25 0,-1.24 1.01,-2.248 2.249,-2.248 1.24,0 2.249,1.008 2.249,2.248 C 2.249,-1.01 1.24,0 0,0 m 0,-4.775 c -1.393,0 -2.525,1.132 -2.525,2.525 0,1.393 1.132,2.525 2.525,2.525 1.393,0 2.525,-1.132 2.525,-2.525 0,-1.393 -1.132,-2.525 -2.525,-2.525" />
      </g>
      <g
         transform="translate(508.5317,309.4531)"
         id="g612">
        <path
           inkscape:connector-curvature="0"
           id="path614"
           style="fill:#000000;fill-opacity:1;fill-rule:nonzero;stroke:none"
           d="m 0,0 c -0.267,0 -0.537,0.07 -0.782,0.217 -9.114,5.482 -19.916,2.31 -20.025,2.279 -0.802,-0.242 -1.651,0.211 -1.895,1.012 -0.244,0.803 0.208,1.652 1.01,1.896 C -21.2,5.555 -9.512,9.016 0.785,2.822 1.505,2.389 1.737,1.455 1.305,0.736 1.02,0.262 0.516,0 0,0" />
      </g>
      <g
         transform="translate(511.1509,315.6934)"
         id="g616">
        <path
           inkscape:connector-curvature="0"
           id="path618"
           style="fill:#000000;fill-opacity:1;fill-rule:nonzero;stroke:none"
           d="m 0,0 c -0.304,0 -0.611,0.078 -0.894,0.24 -11.449,6.584 -22.982,2.75 -23.097,2.711 -0.939,-0.322 -1.96,0.178 -2.282,1.117 -0.322,0.938 0.178,1.959 1.117,2.282 0.533,0.183 13.206,4.392 26.053,-2.995 C 1.758,2.859 2.054,1.762 1.56,0.902 1.227,0.324 0.622,0 0,0" />
      </g>
      <g
         transform="translate(513.9946,322.7754)"
         id="g620">
        <path
           inkscape:connector-curvature="0"
           id="path622"
           style="fill:#000000;fill-opacity:1;fill-rule:nonzero;stroke:none"
           d="m 0,0 c -0.347,0 -0.698,0.082 -1.026,0.256 -13.199,6.93 -26.752,2.781 -26.887,2.738 -1.165,-0.369 -2.407,0.277 -2.774,1.442 -0.369,1.166 0.278,2.408 1.443,2.775 C -28.62,7.408 -13.781,11.949 1.029,4.17 2.11,3.602 2.527,2.266 1.959,1.184 1.563,0.432 0.795,0 0,0" />
      </g>
    </g>
  </g>
</svg>
