<?xml version="1.0" encoding="UTF-8" standalone="no"?>
<!-- Created with Inkscape (http://www.inkscape.org/) -->

<svg
   xmlns:dc="http://purl.org/dc/elements/1.1/"
   xmlns:cc="http://creativecommons.org/ns#"
   xmlns:rdf="http://www.w3.org/1999/02/22-rdf-syntax-ns#"
   xmlns:svg="http://www.w3.org/2000/svg"
   xmlns="http://www.w3.org/2000/svg"
   xmlns:sodipodi="http://sodipodi.sourceforge.net/DTD/sodipodi-0.dtd"
   xmlns:inkscape="http://www.inkscape.org/namespaces/inkscape"
   width="33.09227mm"
   height="32.712864mm"
   viewBox="0 0 117.25607 115.91172"
   id="svg4294"
   version="1.1"
   inkscape:version="0.91 r13725"
   sodipodi:docname="icon_reservas.svg">
  <defs
     id="defs4296" />
  <sodipodi:namedview
     id="base"
     pagecolor="#ffffff"
     bordercolor="#666666"
     borderopacity="1.0"
     inkscape:pageopacity="0.0"
     inkscape:pageshadow="2"
     inkscape:zoom="0.35"
     inkscape:cx="-212.08624"
     inkscape:cy="-342.04415"
     inkscape:document-units="px"
     inkscape:current-layer="layer1"
     showgrid="false"
     fit-margin-top="0"
     fit-margin-left="0"
     fit-margin-right="0"
     fit-margin-bottom="0"
     inkscape:window-width="1871"
     inkscape:window-height="1056"
     inkscape:window-x="49"
     inkscape:window-y="24"
     inkscape:window-maximized="1" />
  <metadata
     id="metadata4299">
    <rdf:RDF>
      <cc:Work
         rdf:about="">
        <dc:format>image/svg+xml</dc:format>
        <dc:type
           rdf:resource="http://purl.org/dc/dcmitype/StillImage" />
        <dc:title></dc:title>
      </cc:Work>
    </rdf:RDF>
  </metadata>
  <g
     inkscape:label="Layer 1"
     inkscape:groupmode="layer"
     id="layer1"
     transform="translate(-92.800524,-74.406342)">
    <g
       transform="matrix(1.25,0,0,-1.25,-1228.4464,451.41378)"
       id="g4222">
      <g
         id="g3907">
        <g
           transform="translate(1130.7144,230.1865)"
           id="g498">
          <path
             inkscape:connector-curvature="0"
             id="path500"
             style="fill:#ffffff;fill-opacity:1;fill-rule:evenodd;stroke:none"
             d="m 0,0 c 0,2.623 0.258,4.826 -0.117,6.916 -0.169,0.942 -1.6,1.66 -2.459,2.479 C -3.284,8.541 -4.524,7.732 -4.603,6.824 -4.86,3.857 -4.892,0.832 -4.576,-2.123 -4.477,-3.045 -3.065,-4.446 -2.138,-4.546 0.818,-4.861 3.848,-4.865 6.806,-4.56 7.761,-4.461 8.58,-3.034 9.461,-2.214 8.512,-1.477 7.643,-0.278 6.598,-0.099 4.615,0.242 2.53,0 0,0 M 20.088,-1.275 C 19.691,-3.063 19.4,-4.882 18.882,-6.634 15.911,-16.665 5.911,-22.801 -4.437,-20.996 c -10.143,1.769 -17.593,11.29 -16.9,21.597 0.691,10.282 9.163,18.728 19.237,19.181 10.8,0.486 19.896,-6.753 21.603,-17.177 0.146,-0.888 0.388,-1.761 0.585,-2.641 l 0,-1.239 z" />
        </g>
        <g
           transform="translate(1077.9116,248.0645)"
           id="g502">
          <path
             inkscape:connector-curvature="0"
             id="path504"
             style="fill:#ffffff;fill-opacity:1;fill-rule:evenodd;stroke:none"
             d="m 0,0 c 3.707,0 7.414,0.024 11.121,-0.011 1.936,-0.018 3.637,0.32 3.644,2.698 0.007,2.218 -1.642,2.608 -3.43,2.61 -7.516,0.011 -15.032,0.012 -22.548,-0.003 -1.813,-0.004 -3.394,-0.483 -3.336,-2.699 0.055,-2.168 1.58,-2.618 3.429,-2.603 C -7.414,0.021 -3.707,0.001 0,0 m 0.112,-17.284 c 3.712,0 7.424,0.015 11.136,-0.007 1.825,-0.012 3.418,0.393 3.512,2.551 0.104,2.368 -1.58,2.868 -3.52,2.871 -7.424,0.009 -14.848,0.009 -22.271,0 -1.943,-0.003 -3.622,-0.51 -3.512,-2.878 0.101,-2.158 1.695,-2.556 3.519,-2.544 3.712,0.023 7.424,0.007 11.136,0.007 M 18.69,23.678 c -9.796,0 -19.592,-0.005 -29.388,0.006 -1.842,0.002 -3.746,-0.038 -3.84,-2.478 -0.1,-2.654 1.886,-2.786 3.858,-2.785 19.489,0.003 38.978,0.008 58.467,-0.007 1.885,-0.001 3.792,0.215 3.877,2.511 0.093,2.524 -1.867,2.772 -3.896,2.766 C 38.076,23.661 28.383,23.678 18.69,23.678 M 57.594,6.813 C 45.194,8.381 35.146,4.528 29.212,-6.754 c -5.322,-10.117 -3.635,-19.943 3.561,-29.294 -1.18,-0.098 -2.03,-0.229 -2.882,-0.229 -12.583,-0.014 -25.167,-0.034 -37.75,-0.002 -8.572,0.021 -12.911,4.396 -12.918,12.983 -0.014,18.257 0.306,36.521 -0.131,54.767 -0.23,9.648 6.101,15.442 16.418,13.445 0,-2.171 -0.031,-4.414 0.007,-6.655 0.068,-4.063 2.292,-6.594 5.777,-6.634 3.497,-0.039 5.823,2.495 5.903,6.499 0.046,2.252 0.009,4.506 0.009,6.955 l 22.682,0 c 0,-2.409 -0.057,-4.759 0.014,-7.104 0.118,-3.893 2.329,-6.307 5.705,-6.347 3.503,-0.042 5.757,2.449 5.833,6.512 0.042,2.248 0.007,4.498 0.007,6.68 10.171,2.091 16.475,-2.937 16.481,-12.883 0.004,-8.043 -0.023,-16.088 -0.046,-24.133 0,-0.193 -0.107,-0.386 -0.288,-0.993" />
        </g>
      </g>
      <g
         id="g506"
         transform="translate(1110.1309,292.7861)">
        <path
           d="M 0,0 C 0,1.852 -0.121,3.712 0.033,5.55 0.2,7.532 1.365,8.81 3.442,8.817 5.512,8.824 6.783,7.609 6.84,5.583 6.954,1.578 7.1,-2.457 6.712,-6.429 6.602,-7.564 4.856,-9.106 3.594,-9.434 1.644,-9.939 0.255,-8.458 0.068,-6.471 -0.132,-4.331 0.024,-2.158 0.024,0 L 0,0 Z"
           style="fill:#ffffff;fill-opacity:1;fill-rule:evenodd;stroke:none"
           id="path508"
           inkscape:connector-curvature="0" />
      </g>
      <g
         id="g510"
         transform="translate(1075.8403,292.4414)">
        <path
           d="M 0,0 C 0,1.854 -0.021,3.708 0.005,5.562 0.038,7.768 1.179,9.133 3.376,9.164 5.557,9.195 6.821,7.915 6.847,5.684 6.891,1.873 6.901,-1.938 6.841,-5.749 6.806,-7.968 5.549,-9.247 3.343,-9.194 1.122,-9.142 0.038,-7.749 0.005,-5.562 -0.022,-3.708 0,-1.854 0,0"
           style="fill:#ffffff;fill-opacity:1;fill-rule:evenodd;stroke:none"
           id="path512"
           inkscape:connector-curvature="0" />
      </g>
    </g>
  </g>
</svg>
