<?xml version="1.0" encoding="UTF-8" standalone="no"?>
<!-- Created with Inkscape (http://www.inkscape.org/) -->

<svg
   xmlns:dc="http://purl.org/dc/elements/1.1/"
   xmlns:cc="http://creativecommons.org/ns#"
   xmlns:rdf="http://www.w3.org/1999/02/22-rdf-syntax-ns#"
   xmlns:svg="http://www.w3.org/2000/svg"
   xmlns="http://www.w3.org/2000/svg"
   xmlns:sodipodi="http://sodipodi.sourceforge.net/DTD/sodipodi-0.dtd"
   xmlns:inkscape="http://www.inkscape.org/namespaces/inkscape"
   width="35.174416mm"
   height="40.582851mm"
   viewBox="0 0 124.63376 143.79751"
   id="svg3913"
   version="1.1"
   inkscape:version="0.91 r13725"
   sodipodi:docname="icon_housekeeper.svg">
  <defs
     id="defs3915" />
  <sodipodi:namedview
     id="base"
     pagecolor="#7696c5"
     bordercolor="#666666"
     borderopacity="1.0"
     inkscape:pageopacity="0"
     inkscape:pageshadow="2"
     inkscape:zoom="1.979899"
     inkscape:cx="-10.708887"
     inkscape:cy="35.639441"
     inkscape:document-units="px"
     inkscape:current-layer="layer1"
     showgrid="false"
     fit-margin-top="0"
     fit-margin-left="0"
     fit-margin-right="0"
     fit-margin-bottom="0"
     inkscape:window-width="1871"
     inkscape:window-height="1056"
     inkscape:window-x="49"
     inkscape:window-y="24"
     inkscape:window-maximized="1" />
  <metadata
     id="metadata3918">
    <rdf:RDF>
      <cc:Work
         rdf:about="">
        <dc:format>image/svg+xml</dc:format>
        <dc:type
           rdf:resource="http://purl.org/dc/dcmitype/StillImage" />
        <dc:title></dc:title>
      </cc:Work>
    </rdf:RDF>
  </metadata>
  <g
     inkscape:label="Layer 1"
     inkscape:groupmode="layer"
     id="layer1"
     transform="translate(-176.01628,-333.98971)">
    <g
       transform="matrix(1.25,0,0,-1.25,212.02628,361.16596)"
       id="g468">
      <path
         inkscape:connector-curvature="0"
         id="path470"
         style="fill:#ffffff;fill-opacity:1;fill-rule:nonzero;stroke:none"
         d="m 0,0 c -0.289,-0.123 -0.578,-0.245 -0.868,-0.367 0.272,-0.834 0.473,-1.7 0.83,-2.495 1.262,-2.807 2.692,-5.545 3.831,-8.399 0.754,-1.889 1.902,-2.447 3.868,-2.409 6.057,0.115 12.117,0.015 18.176,0.052 3.604,0.021 8.058,-1.129 10.577,0.563 2.645,1.775 3.459,6.303 5.022,9.652 0.48,1.026 0.792,2.128 1.181,3.197 -0.29,0.111 -0.579,0.221 -0.867,0.332 -1.544,-3.292 -3.211,-6.533 -4.582,-9.896 -0.758,-1.861 -1.772,-2.486 -3.779,-2.459 -8.289,0.116 -16.582,0.131 -24.87,-0.007 -2.138,-0.036 -3.26,0.591 -4.064,2.572 C 3.121,-6.382 1.5,-3.216 0,0 m 5.821,-62.172 c 6.771,-9.554 26.837,-7.856 30.499,0.589 -0.614,0.374 -1.375,0.639 -1.848,1.163 -2.006,2.221 -4.068,1.933 -6.654,0.876 -4.14,-1.692 -8.714,-1.973 -12.721,-0.078 -3.687,1.744 -6.036,0.725 -8.411,-1.852 -0.213,-0.231 -0.492,-0.401 -0.865,-0.698 m 6.264,59.989 c -1.913,2.374 -3.26,3.954 -4.501,5.616 -1.151,1.542 -1.09,2.634 1.148,3.123 2.912,0.637 5.378,0.275 8.22,-1.044 2.282,-1.058 5.865,-1.133 8.091,-0.046 2.956,1.444 5.524,1.734 8.521,1.026 1.793,-0.424 2.103,-1.364 1.112,-2.719 -1.35,-1.846 -2.849,-3.584 -4.853,-6.076 4.227,0.852 7.803,1.574 12.079,2.438 -3.185,3.545 -5.65,6.314 -8.144,9.056 -1.717,1.889 -3.347,3.883 -5.24,5.579 -4.64,4.155 -11.715,3.837 -16.146,-0.741 C 9.118,10.667 6.058,7.117 2.925,3.639 2.053,2.671 1.229,1.66 -0.199,-0.013 4.253,-0.8 7.807,-1.427 12.085,-2.183 M -0.876,-64.952 c -2.269,-0.976 -4.153,-1.674 -5.916,-2.605 -0.615,-0.324 -1.312,-1.212 -1.322,-1.852 -0.098,-6.463 -0.059,-12.928 -0.059,-19.547 l 58.43,0 c 0,6.655 0.036,13.032 -0.054,19.406 -0.01,0.667 -0.61,1.619 -1.203,1.929 -1.848,0.968 -3.825,1.691 -6.028,2.627 -0.255,-4.094 -0.568,-7.775 -0.678,-11.462 -0.053,-1.793 -0.743,-2.395 -2.493,-2.388 -12.456,0.044 -24.911,0.036 -37.367,0.006 -1.613,-0.005 -2.573,0.306 -2.621,2.248 -0.093,3.714 -0.425,7.423 -0.689,11.638 M 42.4,-29.947 c -12.059,0.635 -23.039,3.893 -33.31,10.052 -1.25,-4.542 -3.727,-7.959 -7.764,-10.222 -0.543,-0.304 -0.931,-1.399 -0.91,-2.113 0.219,-7.405 2.025,-14.307 7.051,-20 7.161,-8.111 19.689,-8.456 26.853,-0.605 5.799,6.353 7.446,14.273 8.08,22.888 m 28.499,-57.607 0,-5.74 c -33.235,-0.004 -66.471,-0.004 -99.707,0 l 0,5.74 c 0.653,3.545 1.306,7.09 1.958,10.634 0.621,3.374 2.361,5.762 5.632,7.15 5.48,2.324 10.877,4.847 16.3,7.303 0.781,0.354 1.52,0.803 2.733,1.451 -2.822,0.59 -5.078,0.845 -7.154,1.597 -0.885,0.32 -1.998,1.699 -1.976,2.569 0.221,8.391 0.681,16.774 1.034,25.161 0.299,7.106 2.202,13.685 6.827,19.183 1.71,2.035 2.194,3.619 0.958,6.134 -2.22,4.522 -1.895,8.742 2.25,12.369 2.389,2.089 4.461,4.585 6.446,7.08 3.411,4.288 7.444,7.528 12.928,8.664 l 3.196,0 c 4.172,-1.074 7.989,-2.669 10.888,-6.124 3.142,-3.748 6.4,-7.417 9.844,-10.887 2.329,-2.347 2.711,-4.942 2.031,-7.892 -0.357,-1.547 -0.765,-3.123 -1.446,-4.544 -0.798,-1.668 -0.543,-2.815 0.672,-4.214 4.457,-5.131 6.799,-11.191 7.513,-17.936 0.948,-8.964 2.038,-17.915 2.881,-26.888 0.08,-0.842 -0.996,-2.317 -1.848,-2.621 -2.207,-0.788 -4.589,-1.088 -7.631,-1.737 6.505,-3.122 12.273,-5.992 18.131,-8.662 3.203,-1.459 4.997,-3.814 5.617,-7.184 0.649,-3.534 1.283,-7.071 1.923,-10.606" />
    </g>
  </g>
</svg>
