<?xml version="1.0" encoding="UTF-8" standalone="no"?>
<!-- Created with Inkscape (http://www.inkscape.org/) -->

<svg
   xmlns:dc="http://purl.org/dc/elements/1.1/"
   xmlns:cc="http://creativecommons.org/ns#"
   xmlns:rdf="http://www.w3.org/1999/02/22-rdf-syntax-ns#"
   xmlns:svg="http://www.w3.org/2000/svg"
   xmlns="http://www.w3.org/2000/svg"
   xmlns:sodipodi="http://sodipodi.sourceforge.net/DTD/sodipodi-0.dtd"
   xmlns:inkscape="http://www.inkscape.org/namespaces/inkscape"
   width="53.210529mm"
   height="11.988094mm"
   viewBox="0 0 188.54124 42.4775"
   id="svg4497"
   version="1.1"
   inkscape:version="0.91 r13725"
   sodipodi:docname="icon_tunein.svg">
  <defs
     id="defs4499">
    <clipPath
       clipPathUnits="userSpaceOnUse"
       id="clipPath648">
      <path
         d="m 1082.815,473.192 c 0,-7.94 6.436,-14.377 14.377,-14.377 l 0,0 c 7.939,0 14.376,6.437 14.376,14.377 l 0,0 c 0,7.939 -6.437,14.376 -14.376,14.376 l 0,0 c -7.941,0 -14.377,-6.437 -14.377,-14.376"
         id="path650"
         inkscape:connector-curvature="0" />
    </clipPath>
    <linearGradient
       x1="0"
       y1="0"
       x2="1"
       y2="0"
       gradientUnits="userSpaceOnUse"
       gradientTransform="matrix(-1.2e-6,-27.689388,-27.689388,1.2e-6,1097.1914,487.36475)"
       spreadMethod="pad"
       id="linearGradient656">
      <stop
         style="stop-opacity:1;stop-color:#9bc3e7"
         offset="0"
         id="stop658" />
      <stop
         style="stop-opacity:1;stop-color:#1d6db1"
         offset="1"
         id="stop660" />
    </linearGradient>
    <clipPath
       clipPathUnits="userSpaceOnUse"
       id="clipPath732">
      <path
         d="m 0,701.01 1274.17,0 L 1274.17,0 0,0 0,701.01 Z"
         id="path734"
         inkscape:connector-curvature="0" />
    </clipPath>
  </defs>
  <sodipodi:namedview
     id="base"
     pagecolor="#ffffff"
     bordercolor="#666666"
     borderopacity="1.0"
     inkscape:pageopacity="0.0"
     inkscape:pageshadow="2"
     inkscape:zoom="1.4"
     inkscape:cx="240.89251"
     inkscape:cy="-15.395895"
     inkscape:document-units="px"
     inkscape:current-layer="layer1"
     showgrid="false"
     fit-margin-top="0"
     fit-margin-left="0"
     fit-margin-right="0"
     fit-margin-bottom="0"
     inkscape:window-width="1871"
     inkscape:window-height="1056"
     inkscape:window-x="49"
     inkscape:window-y="24"
     inkscape:window-maximized="1" />
  <metadata
     id="metadata4502">
    <rdf:RDF>
      <cc:Work
         rdf:about="">
        <dc:format>image/svg+xml</dc:format>
        <dc:type
           rdf:resource="http://purl.org/dc/dcmitype/StillImage" />
        <dc:title></dc:title>
      </cc:Work>
    </rdf:RDF>
  </metadata>
  <g
     inkscape:label="Layer 1"
     inkscape:groupmode="layer"
     id="layer1"
     transform="translate(519.60095,-792.50915)">
    <g
       transform="matrix(1.25,0,0,-1.25,-1891.9047,1219.8229)"
       id="g4445">
      <path
         inkscape:connector-curvature="0"
         id="path680"
         style="fill:#4ab1a6;fill-opacity:1;fill-rule:nonzero;stroke:none"
         d="m 1248.676,307.869 -150.833,0 0,33.982 150.833,0 0,-33.982 z" />
      <g
         transform="translate(1134.022,332.2676)"
         id="g682">
        <path
           inkscape:connector-curvature="0"
           id="path684"
           style="fill:#ffffff;fill-opacity:1;fill-rule:nonzero;stroke:none"
           d="m 0,0 c 0,-1.951 -1.583,-3.535 -3.535,-3.535 -1.952,0 -3.535,1.584 -3.535,3.535 0,1.953 1.583,3.535 3.535,3.535 C -1.583,3.535 0,1.953 0,0" />
      </g>
      <g
         transform="translate(1153.9116,329.6191)"
         id="g686">
        <path
           inkscape:connector-curvature="0"
           id="path688"
           style="fill:#ffffff;fill-opacity:1;fill-rule:nonzero;stroke:none"
           d="m 0,0 -2.515,0 0,4.152 0,0.393 -0.391,0 -3.316,0 -0.391,0 0,-0.393 0,-4.152 -1.967,0 -0.391,0 0,-0.393 0,-2.257 0,-0.393 0.391,0 1.967,0 0,-6.613 c 0,-3.203 1.793,-6.033 5.67,-6.033 l 1.073,0 0.35,0 0,0.505 0,2.559 0,0.502 -1.105,0 c -0.666,0 -1.89,0.537 -1.89,2.221 l 0,6.859 2.515,0 0.393,0 0,0.393 0,2.257 L 0.393,0 0,0 Z" />
      </g>
      <g
         transform="translate(1170.2065,329.6191)"
         id="g690">
        <path
           inkscape:connector-curvature="0"
           id="path692"
           style="fill:#ffffff;fill-opacity:1;fill-rule:nonzero;stroke:none"
           d="m 0,0 -3.314,0 -0.391,0 0,-0.383 0,-8.334 c 0,-0.535 -0.061,-1.041 -0.179,-1.502 -0.112,-0.437 -0.296,-0.814 -0.549,-1.119 -0.251,-0.303 -0.585,-0.551 -0.993,-0.732 -0.411,-0.186 -0.943,-0.28 -1.582,-0.28 -0.804,0 -1.405,0.221 -1.834,0.674 -0.433,0.457 -0.652,1.289 -0.652,2.475 l 0,8.818 0,0.383 -0.393,0 -3.314,0 -0.393,0 0,-0.383 0,-9.131 c 0,-2.027 0.481,-3.576 1.424,-4.603 0.955,-1.039 2.496,-1.565 4.581,-1.565 0.898,0 1.72,0.34 2.581,0.817 0.498,0.277 1.176,0.89 1.535,1.275 l 0,-1.308 0,-0.385 0.393,0 3.08,0 0.394,0 0,0.385 0,14.515 L 0.394,0 0,0 Z" />
      </g>
      <g
         transform="translate(1186.0522,328.6172)"
         id="g694">
        <path
           inkscape:connector-curvature="0"
           id="path696"
           style="fill:#ffffff;fill-opacity:1;fill-rule:nonzero;stroke:none"
           d="M 0,0 C -1.021,0.883 -2.42,1.328 -4.16,1.328 -5.213,1.328 -6.189,1.08 -7.062,0.592 -7.678,0.26 -8.09,-0.342 -8.508,-0.795 l 0,1.354 0,0.378 -0.39,0 -3.142,0 -0.392,0 0,-0.378 0,-14.475 0,-0.377 0.392,0 3.315,0 0.393,0 0,0.377 0,8.541 c 0,0.477 0.08,0.932 0.238,1.355 0.157,0.42 0.377,0.79 0.655,1.098 0.271,0.303 0.608,0.545 1.001,0.715 0.391,0.174 0.845,0.262 1.348,0.262 0.866,0 1.5,-0.217 1.886,-0.643 0.401,-0.443 0.624,-1.195 0.66,-2.24 l -10e-4,-9.088 0,-0.377 0.393,0 3.314,0 0.393,0 0,0.377 0,9.939 C 1.555,-2.23 1.031,-0.891 0,0" />
      </g>
      <g
         transform="translate(1195.9683,326.4707)"
         id="g698">
        <path
           inkscape:connector-curvature="0"
           id="path700"
           style="fill:#ffffff;fill-opacity:1;fill-rule:nonzero;stroke:none"
           d="M 0,0 C 0.425,0.178 0.905,0.268 1.431,0.268 1.93,0.268 2.387,0.17 2.786,-0.02 3.193,-0.217 3.543,-0.475 3.828,-0.785 4.114,-1.1 4.344,-1.477 4.51,-1.906 4.631,-2.217 4.718,-2.537 4.771,-2.867 l -6.871,0 c 0.046,0.353 0.137,0.691 0.272,1.006 0.184,0.429 0.433,0.808 0.738,1.125 0.3,0.31 0.668,0.558 1.09,0.736 M 8.688,-2.084 C 8.395,-1.004 7.917,-0.035 7.268,0.799 6.615,1.639 5.784,2.322 4.798,2.83 3.805,3.342 2.672,3.602 1.431,3.602 0.253,3.602 -0.821,3.377 -1.762,2.938 -2.699,2.498 -3.511,1.895 -4.172,1.146 -4.832,0.4 -5.346,-0.475 -5.699,-1.457 -6.053,-2.434 -6.23,-3.479 -6.23,-4.562 c 0,-1.176 0.168,-2.27 0.498,-3.254 0.336,-0.997 0.842,-1.87 1.507,-2.59 0.664,-0.723 1.452,-1.194 2.413,-1.594 0.955,-0.398 2.101,-0.555 3.33,-0.555 0.847,0 1.672,0.045 2.454,0.272 0.784,0.23 1.504,0.504 2.138,0.955 0.637,0.453 1.558,1.463 2.275,2.99 0.231,0.479 0.293,0.979 0.293,0.979 l -0.405,0 -3.14,0 -0.279,0 -0.091,-0.256 C 4.5,-8.352 4.154,-8.463 3.633,-8.822 3.112,-9.182 2.4,-9.363 1.518,-9.363 c -0.635,0 -1.185,0.105 -1.633,0.316 -0.448,0.213 -0.824,0.498 -1.115,0.852 -0.296,0.357 -0.522,0.783 -0.671,1.265 -0.116,0.373 -0.188,0.918 -0.216,1.315 l 10.643,0 0.349,0 0.041,0.338 c 0.141,1.144 0.064,2.115 -0.228,3.193" />
      </g>
      <g
         transform="translate(1213.2124,329.6445)"
         id="g702">
        <path
           inkscape:connector-curvature="0"
           id="path704"
           style="fill:#ffffff;fill-opacity:1;fill-rule:nonzero;stroke:none"
           d="m 0,0 2.494,0 0,-2.221 c 0,0 1.849,2.442 4.606,2.442 2.755,0 5.468,-1.559 5.468,-4.957 l 0,-10.584 -2.363,0 0,9.707 c 0,1.726 -0.873,3.644 -3.258,3.644 -2.385,0 -3.802,-1.775 -4.106,-2.679 C 2.702,-5.135 2.633,-5.652 2.633,-6.197 l 0,-9.123 L 0,-15.32 0,0 Z" />
      </g>
      <path
         inkscape:connector-curvature="0"
         id="path706"
         style="fill:#ffffff;fill-opacity:1;fill-rule:nonzero;stroke:none"
         d="m 1210.126,314.324 -2.518,0 0,15.213 2.518,0 0,-15.213 z" />
      <g
         transform="translate(1210.4526,334.1719)"
         id="g708">
        <path
           inkscape:connector-curvature="0"
           id="path710"
           style="fill:#ffffff;fill-opacity:1;fill-rule:nonzero;stroke:none"
           d="m 0,0 c 0,-0.881 -0.714,-1.594 -1.594,-1.594 -0.88,0 -1.593,0.713 -1.593,1.594 0,0.879 0.713,1.592 1.593,1.592 C -0.714,1.592 0,0.879 0,0" />
      </g>
      <g
         transform="translate(1133.6157,321.2695)"
         id="g712">
        <path
           inkscape:connector-curvature="0"
           id="path714"
           style="fill:#ffffff;fill-opacity:1;fill-rule:nonzero;stroke:none"
           d="m 0,0 -9.706,0 c -1.438,0 -3.17,1.551 -3.17,3.154 l 0,3.155 10.032,0 C -1.079,6.309 0,4.936 0,3.758 L 0,0 Z" />
      </g>
      <g
         transform="translate(1134.6948,321.2695)"
         id="g716">
        <path
           inkscape:connector-curvature="0"
           id="path718"
           style="fill:#ffffff;fill-opacity:1;fill-rule:nonzero;stroke:none"
           d="m 0,0 0,3.791 c 0,1.307 1.078,2.518 2.516,2.518 l 3.432,0 0,-3.532 C 5.948,1.766 4.51,0 3.235,0 L 0,0 Z" />
      </g>
      <g
         transform="translate(1127.5913,314.4551)"
         id="g720">
        <path
           inkscape:connector-curvature="0"
           id="path722"
           style="fill:#ffffff;fill-opacity:1;fill-rule:nonzero;stroke:none"
           d="m 0,0 3.491,0 c 1.308,0 2.664,1.455 2.664,2.893 l 0,3.16 L 0,6.053 0,0 Z" />
      </g>
    </g>
  </g>
</svg>
