<?xml version="1.0" encoding="UTF-8" standalone="no"?>
<!-- Created with Inkscape (http://www.inkscape.org/) -->

<svg
   xmlns:dc="http://purl.org/dc/elements/1.1/"
   xmlns:cc="http://creativecommons.org/ns#"
   xmlns:rdf="http://www.w3.org/1999/02/22-rdf-syntax-ns#"
   xmlns:svg="http://www.w3.org/2000/svg"
   xmlns="http://www.w3.org/2000/svg"
   xmlns:sodipodi="http://sodipodi.sourceforge.net/DTD/sodipodi-0.dtd"
   xmlns:inkscape="http://www.inkscape.org/namespaces/inkscape"
   width="27.30732mm"
   height="27.410248mm"
   viewBox="0 0 96.758219 97.122925"
   id="svg4497"
   version="1.1"
   inkscape:version="0.91 r13725"
   sodipodi:docname="icon_chrome.svg">
  <defs
     id="defs4499">
    <clipPath
       clipPathUnits="userSpaceOnUse"
       id="clipPath648">
      <path
         d="m 1082.815,473.192 c 0,-7.94 6.436,-14.377 14.377,-14.377 l 0,0 c 7.939,0 14.376,6.437 14.376,14.377 l 0,0 c 0,7.939 -6.437,14.376 -14.376,14.376 l 0,0 c -7.941,0 -14.377,-6.437 -14.377,-14.376"
         id="path650"
         inkscape:connector-curvature="0" />
    </clipPath>
    <linearGradient
       x1="0"
       y1="0"
       x2="1"
       y2="0"
       gradientUnits="userSpaceOnUse"
       gradientTransform="matrix(-1.2e-6,-27.689388,-27.689388,1.2e-6,1097.1914,487.36475)"
       spreadMethod="pad"
       id="linearGradient656">
      <stop
         style="stop-opacity:1;stop-color:#9bc3e7"
         offset="0"
         id="stop658" />
      <stop
         style="stop-opacity:1;stop-color:#1d6db1"
         offset="1"
         id="stop660" />
    </linearGradient>
  </defs>
  <sodipodi:namedview
     id="base"
     pagecolor="#ffffff"
     bordercolor="#666666"
     borderopacity="1.0"
     inkscape:pageopacity="0.0"
     inkscape:pageshadow="2"
     inkscape:zoom="0.35"
     inkscape:cx="-188.04945"
     inkscape:cy="-294.29568"
     inkscape:document-units="px"
     inkscape:current-layer="layer1"
     showgrid="false"
     fit-margin-top="0"
     fit-margin-left="0"
     fit-margin-right="0"
     fit-margin-bottom="0"
     inkscape:window-width="1871"
     inkscape:window-height="1056"
     inkscape:window-x="49"
     inkscape:window-y="24"
     inkscape:window-maximized="1" />
  <metadata
     id="metadata4502">
    <rdf:RDF>
      <cc:Work
         rdf:about="">
        <dc:format>image/svg+xml</dc:format>
        <dc:type
           rdf:resource="http://purl.org/dc/dcmitype/StillImage" />
        <dc:title></dc:title>
      </cc:Work>
    </rdf:RDF>
  </metadata>
  <g
     inkscape:label="Layer 1"
     inkscape:groupmode="layer"
     id="layer1"
     transform="translate(-68.763736,-140.9436)">
    <g
       id="g4408"
       transform="matrix(1.25,0,0,-1.25,-1254.5918,781.29715)">
      <g
         transform="translate(1097.2866,512.2759)"
         id="g624">
        <path
           inkscape:connector-curvature="0"
           id="path626"
           style="fill:#e2432c;fill-opacity:1;fill-rule:nonzero;stroke:none"
           d="m 0,0 c 0,0 22.819,1.027 34.913,-21.906 l -36.853,0 c 0,0 -6.96,0.228 -12.894,-8.215 -1.711,-3.537 -3.535,-7.19 -1.482,-14.376 -2.967,5.018 -15.747,27.268 -15.747,27.268 0,0 9.016,16.317 32.063,17.229" />
      </g>
      <g
         transform="translate(1131.0132,454.0493)"
         id="g628">
        <path
           inkscape:connector-curvature="0"
           id="path630"
           style="fill:#fdde00;fill-opacity:1;fill-rule:nonzero;stroke:none"
           d="m 0,0 c 0,0 -10.523,-20.273 -36.432,-19.277 3.196,5.533 18.43,31.914 18.43,31.914 0,0 3.679,5.912 -0.664,15.273 -2.208,3.25 -4.457,6.657 -11.708,8.474 5.831,0.058 31.487,-0.003 31.487,-0.003 0,0 9.622,-15.967 -1.113,-36.381" />
      </g>
      <g
         transform="translate(1063.7241,453.895)"
         id="g632">
        <path
           inkscape:connector-curvature="0"
           id="path634"
           style="fill:#6eb252;fill-opacity:1;fill-rule:nonzero;stroke:none"
           d="M 0,0 C 0,0 -12.295,19.252 1.523,41.189 4.717,35.655 19.944,9.27 19.944,9.27 c 0,0 3.281,-6.143 13.559,-7.062 3.918,0.286 7.993,0.529 13.193,5.9 C 43.83,3.029 30.947,-19.158 30.947,-19.158 30.947,-19.158 12.31,-19.506 0,0" />
      </g>
      <g
         transform="translate(1094.5815,434.5845)"
         id="g636">
        <path
           inkscape:connector-curvature="0"
           id="path638"
           style="fill:#6aac4f;fill-opacity:1;fill-rule:nonzero;stroke:none"
           d="m 0,0 5.184,21.632 c 0,0 5.699,0.444 10.475,5.686 C 12.693,22.103 0,0 0,0" />
      </g>
      <g
         transform="translate(1079.9253,473.1919)"
         id="g640">
        <path
           inkscape:connector-curvature="0"
           id="path642"
           style="fill:#ffffff;fill-opacity:1;fill-rule:nonzero;stroke:none"
           d="m 0,0 c 0,9.536 7.729,17.266 17.267,17.266 9.536,0 17.266,-7.73 17.266,-17.266 0,-9.537 -7.73,-17.268 -17.266,-17.268 C 7.729,-17.268 0,-9.537 0,0" />
      </g>
      <g
         id="g644">
        <g
           clip-path="url(#clipPath648)"
           id="g646">
          <g
             id="g652">
            <g
               id="g654">
              <path
                 inkscape:connector-curvature="0"
                 id="path662"
                 style="fill:url(#linearGradient656);stroke:none"
                 d="m 1082.815,473.192 c 0,-7.94 6.436,-14.377 14.377,-14.377 l 0,0 c 7.939,0 14.376,6.437 14.376,14.377 l 0,0 c 0,7.939 -6.437,14.376 -14.376,14.376 l 0,0 c -7.941,0 -14.377,-6.437 -14.377,-14.376" />
            </g>
          </g>
        </g>
      </g>
      <g
         transform="translate(1132.1265,490.4302)"
         id="g672">
        <path
           inkscape:connector-curvature="0"
           id="path674"
           style="fill:#f2d400;fill-opacity:1;fill-rule:nonzero;stroke:none"
           d="m 0,0 -21.346,-6.259 c 0,0 -3.218,4.724 -10.141,6.262 C -25.488,0.023 0,0 0,0" />
      </g>
      <g
         transform="translate(1080.5542,468.5552)"
         id="g676">
        <path
           inkscape:connector-curvature="0"
           id="path678"
           style="fill:#d8402a;fill-opacity:1;fill-rule:nonzero;stroke:none"
           d="M 0,0 C -2.998,5.195 -15.328,26.493 -15.328,26.493 L 0.484,10.851 c 0,0 -1.626,-3.343 -1.008,-8.117 L 0,0 Z" />
      </g>
    </g>
  </g>
</svg>
