<?xml version="1.0" encoding="UTF-8" standalone="no"?>
<!-- Created with Inkscape (http://www.inkscape.org/) -->

<svg
   xmlns:dc="http://purl.org/dc/elements/1.1/"
   xmlns:cc="http://creativecommons.org/ns#"
   xmlns:rdf="http://www.w3.org/1999/02/22-rdf-syntax-ns#"
   xmlns:svg="http://www.w3.org/2000/svg"
   xmlns="http://www.w3.org/2000/svg"
   xmlns:sodipodi="http://sodipodi.sourceforge.net/DTD/sodipodi-0.dtd"
   xmlns:inkscape="http://www.inkscape.org/namespaces/inkscape"
   width="9.8198795mm"
   height="12.65943mm"
   viewBox="0 0 34.794848 44.856246"
   id="svg3736"
   version="1.1"
   inkscape:version="0.91 r13725"
   sodipodi:docname="icon_info.svg">
  <defs
     id="defs3738">
    <clipPath
       clipPathUnits="userSpaceOnUse"
       id="clipPath116">
      <path
         d="m 0,701.029 1274.201,0 L 1274.201,0 0,0 0,701.029 Z"
         id="path118"
         inkscape:connector-curvature="0" />
    </clipPath>
    <clipPath
       clipPathUnits="userSpaceOnUse"
       id="clipPath174">
      <path
         d="m 0,701.029 1274.201,0 L 1274.201,0 0,0 0,701.029 Z"
         id="path176"
         inkscape:connector-curvature="0" />
    </clipPath>
    <clipPath
       clipPathUnits="userSpaceOnUse"
       id="clipPath376">
      <path
         d="m 0,701.029 1274.201,0 L 1274.201,0 0,0 0,701.029 Z"
         id="path378"
         inkscape:connector-curvature="0" />
    </clipPath>
    <clipPath
       clipPathUnits="userSpaceOnUse"
       id="clipPath376-3">
      <path
         d="m 0,701.029 1274.201,0 L 1274.201,0 0,0 0,701.029 Z"
         id="path378-6"
         inkscape:connector-curvature="0" />
    </clipPath>
    <clipPath
       clipPathUnits="userSpaceOnUse"
       id="clipPath138">
      <path
         d="m 0,701.029 1274.201,0 L 1274.201,0 0,0 0,701.029 Z"
         id="path140"
         inkscape:connector-curvature="0" />
    </clipPath>
    <clipPath
       clipPathUnits="userSpaceOnUse"
       id="clipPath154">
      <path
         d="m 0,701.029 1274.201,0 L 1274.201,0 0,0 0,701.029 Z"
         id="path156"
         inkscape:connector-curvature="0" />
    </clipPath>
    <clipPath
       clipPathUnits="userSpaceOnUse"
       id="clipPath64">
      <path
         d="m 0,701.029 1274.201,0 L 1274.201,0 0,0 0,701.029 Z"
         id="path66"
         inkscape:connector-curvature="0" />
    </clipPath>
    <clipPath
       clipPathUnits="userSpaceOnUse"
       id="clipPath84">
      <path
         d="m 0,701.029 1274.201,0 L 1274.201,0 0,0 0,701.029 Z"
         id="path86"
         inkscape:connector-curvature="0" />
    </clipPath>
  </defs>
  <sodipodi:namedview
     id="base"
     pagecolor="#d0d0d0"
     bordercolor="#666666"
     borderopacity="1.0"
     inkscape:pageopacity="0"
     inkscape:pageshadow="2"
     inkscape:zoom="5.6"
     inkscape:cx="-7.0141186"
     inkscape:cy="7.86518"
     inkscape:document-units="px"
     inkscape:current-layer="layer1"
     showgrid="false"
     inkscape:window-width="1317"
     inkscape:window-height="744"
     inkscape:window-x="1969"
     inkscape:window-y="24"
     inkscape:window-maximized="1"
     fit-margin-top="0"
     fit-margin-left="0"
     fit-margin-right="0"
     fit-margin-bottom="0" />
  <metadata
     id="metadata3741">
    <rdf:RDF>
      <cc:Work
         rdf:about="">
        <dc:format>image/svg+xml</dc:format>
        <dc:type
           rdf:resource="http://purl.org/dc/dcmitype/StillImage" />
        <dc:title></dc:title>
      </cc:Work>
    </rdf:RDF>
  </metadata>
  <g
     inkscape:groupmode="layer"
     id="layer2"
     inkscape:label="back"
     transform="translate(-283.2325,-195.67646)" />
  <g
     inkscape:label="Layer 1"
     inkscape:groupmode="layer"
     id="layer1"
     transform="translate(-283.2325,-195.67646)">
    <g
       transform="matrix(1.25,0,0,-1.25,216.28087,290.54861)"
       id="g4975">
      <g
         transform="translate(69.5313,46.2197)"
         id="g48">
        <path
           inkscape:connector-curvature="0"
           id="path50"
           style="fill:#ffffff;fill-opacity:1;fill-rule:evenodd;stroke:none"
           d="m 0,0 2.858,0 0,-3.007 -10.828,0 0,2.944 c 0.914,0.053 1.789,0.104 2.736,0.16 l 0,15.136 c -0.908,0.065 -1.783,0.128 -2.731,0.195 l 0,2.975 7.965,0 L 0,0 Z" />
      </g>
      <g
         transform="translate(66.9346,67.4092)"
         id="g52">
        <path
           inkscape:connector-curvature="0"
           id="path54"
           style="fill:#ffffff;fill-opacity:1;fill-rule:evenodd;stroke:none"
           d="M 0,0 C -2.092,0.001 -3.391,1.138 -3.404,2.977 -3.419,4.88 -2.097,6.037 0.076,6.019 2.104,6.002 3.469,4.768 3.443,2.971 3.42,1.176 2.055,-0.002 0,0" />
      </g>
    </g>
  </g>
</svg>
