<?xml version="1.0" encoding="UTF-8" standalone="no"?>
<!-- Created with Inkscape (http://www.inkscape.org/) -->

<svg
   xmlns:dc="http://purl.org/dc/elements/1.1/"
   xmlns:cc="http://creativecommons.org/ns#"
   xmlns:rdf="http://www.w3.org/1999/02/22-rdf-syntax-ns#"
   xmlns:svg="http://www.w3.org/2000/svg"
   xmlns="http://www.w3.org/2000/svg"
   xmlns:sodipodi="http://sodipodi.sourceforge.net/DTD/sodipodi-0.dtd"
   xmlns:inkscape="http://www.inkscape.org/namespaces/inkscape"
   width="6.2434759mm"
   height="11.327301mm"
   viewBox="0 0 22.122552 40.136106"
   id="svg3736"
   version="1.1"
   inkscape:version="0.91 r13725"
   sodipodi:docname="icon_netflix.svg">
  <defs
     id="defs3738">
    <clipPath
       clipPathUnits="userSpaceOnUse"
       id="clipPath116">
      <path
         d="m 0,701.029 1274.201,0 L 1274.201,0 0,0 0,701.029 Z"
         id="path118"
         inkscape:connector-curvature="0" />
    </clipPath>
    <clipPath
       clipPathUnits="userSpaceOnUse"
       id="clipPath174">
      <path
         d="m 0,701.029 1274.201,0 L 1274.201,0 0,0 0,701.029 Z"
         id="path176"
         inkscape:connector-curvature="0" />
    </clipPath>
    <clipPath
       clipPathUnits="userSpaceOnUse"
       id="clipPath376">
      <path
         d="m 0,701.029 1274.201,0 L 1274.201,0 0,0 0,701.029 Z"
         id="path378"
         inkscape:connector-curvature="0" />
    </clipPath>
    <clipPath
       clipPathUnits="userSpaceOnUse"
       id="clipPath376-3">
      <path
         d="m 0,701.029 1274.201,0 L 1274.201,0 0,0 0,701.029 Z"
         id="path378-6"
         inkscape:connector-curvature="0" />
    </clipPath>
    <clipPath
       clipPathUnits="userSpaceOnUse"
       id="clipPath138">
      <path
         d="m 0,701.029 1274.201,0 L 1274.201,0 0,0 0,701.029 Z"
         id="path140"
         inkscape:connector-curvature="0" />
    </clipPath>
    <clipPath
       clipPathUnits="userSpaceOnUse"
       id="clipPath154">
      <path
         d="m 0,701.029 1274.201,0 L 1274.201,0 0,0 0,701.029 Z"
         id="path156"
         inkscape:connector-curvature="0" />
    </clipPath>
    <clipPath
       clipPathUnits="userSpaceOnUse"
       id="clipPath64">
      <path
         d="m 0,701.029 1274.201,0 L 1274.201,0 0,0 0,701.029 Z"
         id="path66"
         inkscape:connector-curvature="0" />
    </clipPath>
    <clipPath
       clipPathUnits="userSpaceOnUse"
       id="clipPath84">
      <path
         d="m 0,701.029 1274.201,0 L 1274.201,0 0,0 0,701.029 Z"
         id="path86"
         inkscape:connector-curvature="0" />
    </clipPath>
  </defs>
  <sodipodi:namedview
     id="base"
     pagecolor="#ffffff"
     bordercolor="#666666"
     borderopacity="1.0"
     inkscape:pageopacity="0.0"
     inkscape:pageshadow="2"
     inkscape:zoom="1.4"
     inkscape:cx="-116.8163"
     inkscape:cy="107.87824"
     inkscape:document-units="px"
     inkscape:current-layer="layer2"
     showgrid="false"
     inkscape:window-width="1871"
     inkscape:window-height="1056"
     inkscape:window-x="49"
     inkscape:window-y="24"
     inkscape:window-maximized="1"
     fit-margin-top="0"
     fit-margin-left="0"
     fit-margin-right="0"
     fit-margin-bottom="0" />
  <metadata
     id="metadata3741">
    <rdf:RDF>
      <cc:Work
         rdf:about="">
        <dc:format>image/svg+xml</dc:format>
        <dc:type
           rdf:resource="http://purl.org/dc/dcmitype/StillImage" />
        <dc:title></dc:title>
      </cc:Work>
    </rdf:RDF>
  </metadata>
  <g
     inkscape:groupmode="layer"
     id="layer2"
     inkscape:label="back"
     transform="translate(-213.93872,-612.29415)" />
  <g
     inkscape:label="Layer 1"
     inkscape:groupmode="layer"
     id="layer1"
     transform="translate(-213.93872,-612.29415)">
    <g
       transform="matrix(1.25,0,0,-1.25,-196.49465,706.44465)"
       id="g80">
      <g
         id="g82"
         clip-path="url(#clipPath84)">
        <g
           id="g88"
           transform="translate(328.3467,75.3174)">
          <path
             d="m 0,0 0,-16.041 c 0,-8.823 0.008,-16.05 0.02,-16.063 0.013,-0.013 0.558,0.043 1.217,0.115 0.659,0.071 1.569,0.164 2.021,0.203 0.691,0.058 2.771,0.189 3.009,0.193 0.071,0 0.076,0.361 0.084,6.796 l 0.011,6.78 -0.003,0.011 0,-0.008 L 0,0 Z"
             style="fill:#c82328;fill-opacity:1;fill-rule:evenodd;stroke:none"
             id="path90"
             inkscape:connector-curvature="0" />
        </g>
        <g
           id="g92"
           transform="translate(334.7021,53.6387)">
          <path
             d="M 0,0 0.007,3.662 0.004,3.673 0.004,3.665 -6.355,21.679 0,0 Z"
             style="fill:#b12329;fill-opacity:1;fill-rule:evenodd;stroke:none"
             id="path94"
             inkscape:connector-curvature="0" />
        </g>
        <g
           id="g96"
           transform="translate(339.7354,75.2949)">
          <path
             d="m 0,0 -0.014,-7.095 -0.012,-7.092 6.304,-17.89 c 0,0 -0.02,-0.005 -0.047,-0.005 0.032,0 0.052,10e-4 0.052,10e-4 0.025,0.021 0.029,7.243 0.025,16.059 L 6.296,0 0,0 Z"
             style="fill:#c82328;fill-opacity:1;fill-rule:evenodd;stroke:none"
             id="path98"
             inkscape:connector-curvature="0" />
        </g>
        <g
           id="g100"
           transform="translate(339.7158,64.6953)">
          <path
             d="M 0,0 -0.007,-3.587 6.029,-20.713 0,0 Z"
             style="fill:#b12329;fill-opacity:1;fill-rule:evenodd;stroke:none"
             id="path102"
             inkscape:connector-curvature="0" />
        </g>
        <g
           id="g104"
           transform="translate(328.3467,75.3174)">
          <path
             d="m 0,0 6.359,-18.014 0,0.008 0.503,-1.418 c 2.792,-7.903 4.293,-12.143 4.301,-12.151 0.005,-0.005 0.428,-0.03 0.94,-0.055 1.546,-0.077 3.463,-0.241 4.922,-0.424 0.333,-0.041 0.625,-0.063 0.642,-0.046 l -6.305,17.891 0,-0.004 -0.583,1.648 C 10.209,-10.957 9.828,-9.88 7.535,-3.4 6.917,-1.657 6.393,-0.183 6.372,-0.116 L 6.329,0.003 3.165,0.003 0,0 Z"
             style="fill:#ed2032;fill-opacity:1;fill-rule:evenodd;stroke:none"
             id="path106"
             inkscape:connector-curvature="0" />
        </g>
      </g>
    </g>
  </g>
</svg>
