<?xml version="1.0" encoding="UTF-8" standalone="no"?>
<!-- Created with Inkscape (http://www.inkscape.org/) -->

<svg
   xmlns:dc="http://purl.org/dc/elements/1.1/"
   xmlns:cc="http://creativecommons.org/ns#"
   xmlns:rdf="http://www.w3.org/1999/02/22-rdf-syntax-ns#"
   xmlns:svg="http://www.w3.org/2000/svg"
   xmlns="http://www.w3.org/2000/svg"
   xmlns:sodipodi="http://sodipodi.sourceforge.net/DTD/sodipodi-0.dtd"
   xmlns:inkscape="http://www.inkscape.org/namespaces/inkscape"
   width="48.484684mm"
   height="10.76459mm"
   viewBox="0 0 171.79612 38.142249"
   id="svg4497"
   version="1.1"
   inkscape:version="0.91 r13725"
   sodipodi:docname="icon_deezer.svg">
  <defs
     id="defs4499">
    <clipPath
       clipPathUnits="userSpaceOnUse"
       id="clipPath648">
      <path
         d="m 1082.815,473.192 c 0,-7.94 6.436,-14.377 14.377,-14.377 l 0,0 c 7.939,0 14.376,6.437 14.376,14.377 l 0,0 c 0,7.939 -6.437,14.376 -14.376,14.376 l 0,0 c -7.941,0 -14.377,-6.437 -14.377,-14.376"
         id="path650"
         inkscape:connector-curvature="0" />
    </clipPath>
    <linearGradient
       x1="0"
       y1="0"
       x2="1"
       y2="0"
       gradientUnits="userSpaceOnUse"
       gradientTransform="matrix(-1.2e-6,-27.689388,-27.689388,1.2e-6,1097.1914,487.36475)"
       spreadMethod="pad"
       id="linearGradient656">
      <stop
         style="stop-opacity:1;stop-color:#9bc3e7"
         offset="0"
         id="stop658" />
      <stop
         style="stop-opacity:1;stop-color:#1d6db1"
         offset="1"
         id="stop660" />
    </linearGradient>
    <clipPath
       clipPathUnits="userSpaceOnUse"
       id="clipPath732">
      <path
         d="m 0,701.01 1274.17,0 L 1274.17,0 0,0 0,701.01 Z"
         id="path734"
         inkscape:connector-curvature="0" />
    </clipPath>
  </defs>
  <sodipodi:namedview
     id="base"
     pagecolor="#ffffff"
     bordercolor="#666666"
     borderopacity="1.0"
     inkscape:pageopacity="0.0"
     inkscape:pageshadow="2"
     inkscape:zoom="0.35"
     inkscape:cx="422.43183"
     inkscape:cy="260.31414"
     inkscape:document-units="px"
     inkscape:current-layer="layer1"
     showgrid="false"
     fit-margin-top="0"
     fit-margin-left="0"
     fit-margin-right="0"
     fit-margin-bottom="0"
     inkscape:window-width="1871"
     inkscape:window-height="1056"
     inkscape:window-x="49"
     inkscape:window-y="24"
     inkscape:window-maximized="1" />
  <metadata
     id="metadata4502">
    <rdf:RDF>
      <cc:Work
         rdf:about="">
        <dc:format>image/svg+xml</dc:format>
        <dc:type
           rdf:resource="http://purl.org/dc/dcmitype/StillImage" />
        <dc:title></dc:title>
      </cc:Work>
    </rdf:RDF>
  </metadata>
  <g
     inkscape:label="Layer 1"
     inkscape:groupmode="layer"
     id="layer1"
     transform="translate(541.71755,-754.5341)">
    <g
       transform="matrix(1.25,0,0,-1.25,-1512.4188,1176.0186)"
       id="g728">
      <g
         id="g730"
         clip-path="url(#clipPath732)">
        <path
           d="m 776.561,306.676 9.071,0 0,2.748 -9.071,0 0,-2.748 z"
           style="fill:#e03119;fill-opacity:1;fill-rule:nonzero;stroke:none"
           id="path736"
           inkscape:connector-curvature="0" />
        <path
           d="m 776.561,310.248 9.071,0 0,2.75 -9.071,0 0,-2.75 z"
           style="fill:#e03119;fill-opacity:1;fill-rule:nonzero;stroke:none"
           id="path738"
           inkscape:connector-curvature="0" />
        <path
           d="m 776.561,313.822 9.071,0 0,2.748 -9.071,0 0,-2.748 z"
           style="fill:#e03119;fill-opacity:1;fill-rule:nonzero;stroke:none"
           id="path740"
           inkscape:connector-curvature="0" />
        <path
           d="m 776.561,317.395 9.071,0 0,2.748 -9.071,0 0,-2.748 z"
           style="fill:#eb937c;fill-opacity:1;fill-rule:nonzero;stroke:none"
           id="path742"
           inkscape:connector-curvature="0" />
        <path
           d="m 776.561,320.969 9.071,0 0,2.748 -9.071,0 0,-2.748 z"
           style="fill:#eb937c;fill-opacity:1;fill-rule:nonzero;stroke:none"
           id="path744"
           inkscape:connector-curvature="0" />
        <path
           d="m 786.731,306.676 9.071,0 0,2.748 -9.071,0 0,-2.748 z"
           style="fill:#fde000;fill-opacity:1;fill-rule:nonzero;stroke:none"
           id="path746"
           inkscape:connector-curvature="0" />
        <path
           d="m 786.731,310.248 9.071,0 0,2.75 -9.071,0 0,-2.75 z"
           style="fill:#fde000;fill-opacity:1;fill-rule:nonzero;stroke:none"
           id="path748"
           inkscape:connector-curvature="0" />
        <path
           d="m 786.731,313.822 9.071,0 0,2.748 -9.071,0 0,-2.748 z"
           style="fill:#fde000;fill-opacity:1;fill-rule:nonzero;stroke:none"
           id="path750"
           inkscape:connector-curvature="0" />
        <path
           d="m 796.902,306.676 9.07,0 0,2.748 -9.07,0 0,-2.748 z"
           style="fill:#d13e90;fill-opacity:1;fill-rule:nonzero;stroke:none"
           id="path752"
           inkscape:connector-curvature="0" />
        <path
           d="m 796.902,310.248 9.07,0 0,2.75 -9.07,0 0,-2.75 z"
           style="fill:#d13e90;fill-opacity:1;fill-rule:nonzero;stroke:none"
           id="path754"
           inkscape:connector-curvature="0" />
        <path
           d="m 796.902,313.822 9.07,0 0,2.748 -9.07,0 0,-2.748 z"
           style="fill:#d13e90;fill-opacity:1;fill-rule:nonzero;stroke:none"
           id="path756"
           inkscape:connector-curvature="0" />
        <path
           d="m 796.902,317.395 9.07,0 0,2.748 -9.07,0 0,-2.748 z"
           style="fill:#e7adcf;fill-opacity:1;fill-rule:nonzero;stroke:none"
           id="path758"
           inkscape:connector-curvature="0" />
        <path
           d="m 796.902,320.969 9.07,0 0,2.748 -9.07,0 0,-2.748 z"
           style="fill:#e7adcf;fill-opacity:1;fill-rule:nonzero;stroke:none"
           id="path760"
           inkscape:connector-curvature="0" />
        <path
           d="m 796.902,324.543 9.07,0 0,2.748 -9.07,0 0,-2.748 z"
           style="fill:#e7adcf;fill-opacity:1;fill-rule:nonzero;stroke:none"
           id="path762"
           inkscape:connector-curvature="0" />
        <path
           d="m 796.902,328.115 9.07,0 0,2.748 -9.07,0 0,-2.748 z"
           style="fill:#e7adcf;fill-opacity:1;fill-rule:nonzero;stroke:none"
           id="path764"
           inkscape:connector-curvature="0" />
        <path
           d="m 807.072,306.676 9.071,0 0,2.748 -9.071,0 0,-2.748 z"
           style="fill:#c4d000;fill-opacity:1;fill-rule:nonzero;stroke:none"
           id="path766"
           inkscape:connector-curvature="0" />
        <path
           d="m 807.072,310.248 9.071,0 0,2.75 -9.071,0 0,-2.75 z"
           style="fill:#c4d000;fill-opacity:1;fill-rule:nonzero;stroke:none"
           id="path768"
           inkscape:connector-curvature="0" />
        <path
           d="m 807.072,313.822 9.071,0 0,2.748 -9.071,0 0,-2.748 z"
           style="fill:#c4d000;fill-opacity:1;fill-rule:nonzero;stroke:none"
           id="path770"
           inkscape:connector-curvature="0" />
        <path
           d="m 807.072,317.395 9.071,0 0,2.748 -9.071,0 0,-2.748 z"
           style="fill:#e4e47e;fill-opacity:1;fill-rule:nonzero;stroke:none"
           id="path772"
           inkscape:connector-curvature="0" />
        <path
           d="m 807.072,320.969 9.071,0 0,2.748 -9.071,0 0,-2.748 z"
           style="fill:#e4e47e;fill-opacity:1;fill-rule:nonzero;stroke:none"
           id="path774"
           inkscape:connector-curvature="0" />
        <path
           d="m 817.242,306.676 9.072,0 0,2.748 -9.072,0 0,-2.748 z"
           style="fill:#5fb6e3;fill-opacity:1;fill-rule:nonzero;stroke:none"
           id="path776"
           inkscape:connector-curvature="0" />
        <path
           d="m 817.242,310.248 9.072,0 0,2.75 -9.072,0 0,-2.75 z"
           style="fill:#5fb6e3;fill-opacity:1;fill-rule:nonzero;stroke:none"
           id="path778"
           inkscape:connector-curvature="0" />
        <path
           d="m 817.242,313.822 9.072,0 0,2.75 -9.072,0 0,-2.75 z"
           style="fill:#5fb6e3;fill-opacity:1;fill-rule:nonzero;stroke:none"
           id="path780"
           inkscape:connector-curvature="0" />
        <path
           d="m 817.242,317.395 9.072,0 0,2.75 -9.072,0 0,-2.75 z"
           style="fill:#bcdbea;fill-opacity:1;fill-rule:nonzero;stroke:none"
           id="path782"
           inkscape:connector-curvature="0" />
        <path
           d="m 817.242,320.969 9.072,0 0,2.75 -9.072,0 0,-2.75 z"
           style="fill:#bcdbea;fill-opacity:1;fill-rule:nonzero;stroke:none"
           id="path784"
           inkscape:connector-curvature="0" />
        <path
           d="m 817.242,324.543 9.072,0 0,2.748 -9.072,0 0,-2.748 z"
           style="fill:#bcdbea;fill-opacity:1;fill-rule:nonzero;stroke:none"
           id="path786"
           inkscape:connector-curvature="0" />
        <path
           d="m 817.242,328.117 9.072,0 0,2.748 -9.072,0 0,-2.748 z"
           style="fill:#bcdbea;fill-opacity:1;fill-rule:nonzero;stroke:none"
           id="path788"
           inkscape:connector-curvature="0" />
        <path
           d="m 817.242,331.689 9.072,0 0,2.748 -9.072,0 0,-2.748 z"
           style="fill:#bcdbea;fill-opacity:1;fill-rule:nonzero;stroke:none"
           id="path790"
           inkscape:connector-curvature="0" />
        <g
           id="g792"
           transform="translate(834.0073,310.2246)">
          <path
             d="m 0,0 2.131,0 c 3.128,0 3.64,1.65 3.64,6.891 l 0,10.478 c 0,4.524 -0.386,6.043 -3.977,6.043 L 0,23.412 0,0 Z m -4.121,26.963 6.801,0 c 6.845,0 7.492,-2.397 7.492,-11.272 l 0,-9.07 c 0,-7.818 -1.572,-10.17 -8.246,-10.17 l -6.047,0 0,30.512 z"
             style="fill:#ffffff;fill-opacity:1;fill-rule:nonzero;stroke:none"
             id="path794"
             inkscape:connector-curvature="0" />
        </g>
        <g
           id="g796"
           transform="translate(845.8276,337.1875)">
          <path
             d="m 0,0 11.545,0 0,-3.627 -7.422,0 0,-9.568 6.872,0 0,-3.573 -6.872,0 0,-10.121 7.422,0 0,-3.623 L 0,-30.512 0,0 Z"
             style="fill:#ffffff;fill-opacity:1;fill-rule:nonzero;stroke:none"
             id="path798"
             inkscape:connector-curvature="0" />
        </g>
        <g
           id="g800"
           transform="translate(859.0229,337.1875)">
          <path
             d="m 0,0 11.543,0 0,-3.627 -7.421,0 0,-9.568 6.872,0 0,-3.573 -6.872,0 0,-10.121 7.421,0 0,-3.623 L 0,-30.512 0,0 Z"
             style="fill:#ffffff;fill-opacity:1;fill-rule:nonzero;stroke:none"
             id="path802"
             inkscape:connector-curvature="0" />
        </g>
        <g
           id="g804"
           transform="translate(887.3325,337.1875)">
          <path
             d="m 0,0 11.546,0 0,-3.627 -7.423,0 0,-9.568 6.874,0 0,-3.573 -6.874,0 0,-10.121 7.423,0 0,-3.623 L 0,-30.512 0,0 Z"
             style="fill:#ffffff;fill-opacity:1;fill-rule:nonzero;stroke:none"
             id="path806"
             inkscape:connector-curvature="0" />
        </g>
        <g
           id="g808"
           transform="translate(872.2153,310.248)">
          <path
             d="m 0,0 9.499,23.363 -9.499,0 0,3.574 13.468,0 0,-3.574 L 4.132,0 l 9.336,0 0,-3.574 L 0,-3.572 0,0 Z"
             style="fill:#ffffff;fill-opacity:1;fill-rule:nonzero;stroke:none"
             id="path810"
             inkscape:connector-curvature="0" />
        </g>
        <g
           id="g812"
           transform="translate(904.6509,323.7168)">
          <path
             d="m 0,0 1.278,0 c 3.339,0 3.848,0.412 3.848,4.977 0,4.521 -0.404,4.919 -3.022,4.919 L 0,9.896 0,0 Z m -4.123,13.469 6.597,0 c 6.17,0 6.601,-1.573 6.601,-8.25 0,-4.098 -0.386,-6.102 -3.851,-7.156 2.873,-0.297 3.857,-1.797 3.857,-4.668 l 0,-6.635 c 0,-1.1 0.008,-2.533 0.266,-3.801 l -4.123,0 c -0.425,0.762 -0.274,1.51 -0.274,2.736 l 0,6.889 c 0,2.873 -0.545,3.568 -3.335,3.568 l -1.615,0 0,-13.195 -4.123,0.002 0,30.51 z"
             style="fill:#ffffff;fill-opacity:1;fill-rule:nonzero;stroke:none"
             id="path814"
             inkscape:connector-curvature="0" />
        </g>
      </g>
    </g>
  </g>
</svg>
