<?xml version="1.0" encoding="UTF-8" standalone="no"?>
<!-- Created with Inkscape (http://www.inkscape.org/) -->

<svg
   xmlns:dc="http://purl.org/dc/elements/1.1/"
   xmlns:cc="http://creativecommons.org/ns#"
   xmlns:rdf="http://www.w3.org/1999/02/22-rdf-syntax-ns#"
   xmlns:svg="http://www.w3.org/2000/svg"
   xmlns="http://www.w3.org/2000/svg"
   xmlns:sodipodi="http://sodipodi.sourceforge.net/DTD/sodipodi-0.dtd"
   xmlns:inkscape="http://www.inkscape.org/namespaces/inkscape"
   width="16.869127mm"
   height="12.113296mm"
   viewBox="0 0 59.772498 42.921126"
   id="svg3736"
   version="1.1"
   inkscape:version="0.91 r13725"
   sodipodi:docname="icons.svg">
  <defs
     id="defs3738">
    <clipPath
       clipPathUnits="userSpaceOnUse"
       id="clipPath116">
      <path
         d="m 0,701.029 1274.201,0 L 1274.201,0 0,0 0,701.029 Z"
         id="path118"
         inkscape:connector-curvature="0" />
    </clipPath>
    <clipPath
       clipPathUnits="userSpaceOnUse"
       id="clipPath174">
      <path
         d="m 0,701.029 1274.201,0 L 1274.201,0 0,0 0,701.029 Z"
         id="path176"
         inkscape:connector-curvature="0" />
    </clipPath>
    <clipPath
       clipPathUnits="userSpaceOnUse"
       id="clipPath376">
      <path
         d="m 0,701.029 1274.201,0 L 1274.201,0 0,0 0,701.029 Z"
         id="path378"
         inkscape:connector-curvature="0" />
    </clipPath>
    <clipPath
       clipPathUnits="userSpaceOnUse"
       id="clipPath376-3">
      <path
         d="m 0,701.029 1274.201,0 L 1274.201,0 0,0 0,701.029 Z"
         id="path378-6"
         inkscape:connector-curvature="0" />
    </clipPath>
    <clipPath
       clipPathUnits="userSpaceOnUse"
       id="clipPath138">
      <path
         d="m 0,701.029 1274.201,0 L 1274.201,0 0,0 0,701.029 Z"
         id="path140"
         inkscape:connector-curvature="0" />
    </clipPath>
    <clipPath
       clipPathUnits="userSpaceOnUse"
       id="clipPath154">
      <path
         d="m 0,701.029 1274.201,0 L 1274.201,0 0,0 0,701.029 Z"
         id="path156"
         inkscape:connector-curvature="0" />
    </clipPath>
    <clipPath
       clipPathUnits="userSpaceOnUse"
       id="clipPath64">
      <path
         d="m 0,701.029 1274.201,0 L 1274.201,0 0,0 0,701.029 Z"
         id="path66"
         inkscape:connector-curvature="0" />
    </clipPath>
    <clipPath
       clipPathUnits="userSpaceOnUse"
       id="clipPath84">
      <path
         d="m 0,701.029 1274.201,0 L 1274.201,0 0,0 0,701.029 Z"
         id="path86"
         inkscape:connector-curvature="0" />
    </clipPath>
  </defs>
  <sodipodi:namedview
     id="base"
     pagecolor="#ffffff"
     bordercolor="#666666"
     borderopacity="1.0"
     inkscape:pageopacity="0.0"
     inkscape:pageshadow="2"
     inkscape:zoom="11.2"
     inkscape:cx="37.069646"
     inkscape:cy="7.4823583"
     inkscape:document-units="px"
     inkscape:current-layer="layer2"
     showgrid="false"
     inkscape:window-width="1871"
     inkscape:window-height="1056"
     inkscape:window-x="49"
     inkscape:window-y="24"
     inkscape:window-maximized="1"
     fit-margin-top="0"
     fit-margin-left="0"
     fit-margin-right="0"
     fit-margin-bottom="0" />
  <metadata
     id="metadata3741">
    <rdf:RDF>
      <cc:Work
         rdf:about="">
        <dc:format>image/svg+xml</dc:format>
        <dc:type
           rdf:resource="http://purl.org/dc/dcmitype/StillImage" />
        <dc:title></dc:title>
      </cc:Work>
    </rdf:RDF>
  </metadata>
  <g
     inkscape:groupmode="layer"
     id="layer2"
     inkscape:label="back"
     transform="translate(-231.54231,-197.33021)" />
  <g
     inkscape:label="Layer 1"
     inkscape:groupmode="layer"
     id="layer1"
     transform="translate(-231.54231,-197.33021)">
    <g
       transform="matrix(1.25,0,0,-1.25,-779.14881,293.49496)"
       id="g372">
      <g
         id="g374"
         clip-path="url(#clipPath376)">
        <g
           id="g380"
           transform="translate(855.8994,45.1904)">
          <path
             d="m 0,0 c 0,-1.173 -0.846,-2.124 -1.891,-2.124 l -43.093,0 c -1.045,0 -1.891,0.951 -1.891,2.124 0,1.174 0.846,2.125 1.891,2.125 l 43.093,0 C -0.846,2.125 0,1.174 0,0 Z"
             style="fill:none;stroke:#ffffff;stroke-width:0.94300002;stroke-linecap:butt;stroke-linejoin:miter;stroke-miterlimit:10;stroke-dasharray:none;stroke-opacity:1"
             id="path382"
             inkscape:connector-curvature="0" />
        </g>
        <g
           id="g384"
           transform="translate(836.2119,74.8223)">
          <path
             d="m 0,0 c 0,0.841 -0.898,1.523 -2.006,1.523 l -3.238,0 c -0.643,0 -1.215,-0.23 -1.582,-0.586 C -7.092,0.678 -7.25,0.353 -7.25,0 c 0,-0.842 0.898,-1.524 2.006,-1.524 l 3.238,0 C -0.898,-1.524 0,-0.842 0,0 Z"
             style="fill:none;stroke:#ffffff;stroke-width:1.17299998;stroke-linecap:butt;stroke-linejoin:miter;stroke-miterlimit:10;stroke-dasharray:none;stroke-opacity:1"
             id="path386"
             inkscape:connector-curvature="0" />
        </g>
        <path
           d="m 834.709,69.401 -4.25,0 0,3.546 4.25,0 0,-3.546 z"
           style="fill:none;stroke:#ffffff;stroke-width:1.39300001;stroke-linecap:round;stroke-linejoin:miter;stroke-miterlimit:10;stroke-dasharray:none;stroke-opacity:1"
           id="path388"
           inkscape:connector-curvature="0" />
        <g
           id="g390"
           transform="translate(824.5225,63.0713)">
          <path
             d="M 0,0 C 0,0 -5.5,-1.711 -7.625,-5.793"
             style="fill:none;stroke:#ffffff;stroke-width:0.95099998;stroke-linecap:round;stroke-linejoin:miter;stroke-miterlimit:10;stroke-dasharray:none;stroke-opacity:1"
             id="path392"
             inkscape:connector-curvature="0" />
        </g>
        <g
           id="g394"
           transform="translate(849.083,49.1309)">
          <path
             d="m 0,0 c 0,-1.003 -0.812,-1.815 -1.816,-1.815 l -29.366,0 c -1.002,0 -1.816,0.812 -1.816,1.815 0,1.003 0.814,1.816 1.816,1.816 l 29.366,0 C -0.812,1.816 0,1.003 0,0 Z"
             style="fill:none;stroke:#ffffff;stroke-width:1.01800001;stroke-linecap:butt;stroke-linejoin:miter;stroke-miterlimit:10;stroke-dasharray:none;stroke-opacity:1"
             id="path396"
             inkscape:connector-curvature="0" />
        </g>
        <g
           id="g398"
           transform="translate(854.8105,50.9473)">
          <path
             d="m 0,0 -44.892,0 c 1.776,10.471 11.103,18.454 22.342,18.454 11.237,0 20.562,-7.981 22.34,-18.449"
             style="fill:none;stroke:#ffffff;stroke-width:1.01800001;stroke-linecap:butt;stroke-linejoin:miter;stroke-miterlimit:10;stroke-dasharray:none;stroke-opacity:1"
             id="path400"
             inkscape:connector-curvature="0" />
        </g>
        <g
           id="g402"
           transform="translate(854.8105,50.4375)">
          <path
             d="m 0,0 0.438,0 -0.156,0.656 -0.396,0 L 0,0 Z"
             style="fill:#ffffff;fill-opacity:1;fill-rule:nonzero;stroke:none"
             id="path404"
             inkscape:connector-curvature="0" />
        </g>
        <g
           id="g406"
           transform="translate(854.8105,50.4375)">
          <path
             d="m 0,0 0.438,0 -0.156,0.656 -0.396,0 L 0,0 Z"
             style="fill:none;stroke:#ffffff;stroke-width:0.01;stroke-linecap:butt;stroke-linejoin:miter;stroke-miterlimit:10;stroke-dasharray:none;stroke-opacity:1"
             id="path408"
             inkscape:connector-curvature="0" />
        </g>
      </g>
    </g>
  </g>
</svg>
